<svg id="Layer_1" data-name="Layer 1" xmlns="http://www.w3.org/2000/svg" viewBox="0 0 512 512"><defs><style>.cls-1{fill:#211815;}.cls-2{fill:#fff;}.cls-3{fill:#eaaf2e;}.cls-4{fill:#d44189;}.cls-5{fill:#81b845;}.cls-6{fill:#b89b43;}.cls-7{fill:none;}</style></defs><path class="cls-1" d="M61.08,364.37H54.44l-.56-31.64H32.42V326.5H61.78ZM76.8,350l-.42,27.63H69.74L69,326.5h8l-.2,16.68h7.47v6.92L76.8,350Z"/><path class="cls-1" d="M93.48,363.67V357.3h18.83l-.55-8.93h7.75L119,357.3h18.83v6.37Zm39.33-10.87-17.17-9.9-17.1,10-3.33-4.77,16.34-10.87-.28-4.43H98.74v-6.3h33.72v6.3H119.79l-.21,4.29L136.06,348Zm-4.57,37h-6.65l-.48-15h-20v-6.3h27.76Z"/><path class="cls-1" d="M175.31,358.9l-12.39-12.53-11.56,13.77-4.85-3.53L159.11,340l-.34-5H148v-6.44H158.7l-.21-5.12h8.31l-.14,5.12h10.73v6.37H166.73l-.21,4.78,13,15.09Zm-11.77,30.25-.69-22.71h8l-.48,16.48h19.59v6.23Zm28.6-23.68h-6.65l-.69-39h8Z"/><path class="cls-1" d="M206,335v-6h11.29l-.35-4.92H225l-.35,4.92H236v6h-3.33a13.67,13.67,0,0,1,3.19,8.59c0,6.37-4.85,11.9-10.87,13.63l-.62,6.93h12.39v6.37H205.29v-6.37h12.46l-.55-6.93c-6-1.73-10.94-7.26-10.94-13.63a14.17,14.17,0,0,1,3.11-8.59Zm15.16.9A7.69,7.69,0,1,0,229,343.6,7.93,7.93,0,0,0,221.14,335.91Zm27.21,13.57-.42,28.32h-6.64l-.69-51.3h8l-.21,16h7.27v7.06h-7.27Z"/><path class="cls-1" d="M302.7,364.09l-.7,14.05h-6.71l-.63-14.05H276.6v-6.3h44.16v6.3Zm-8-42.16h8l-.35,4.43c6.85,1.59,12.25,7.13,12.25,14.26,0,8.51-7.4,14.68-15.92,14.68s-15.92-6.17-15.92-14.68c0-7.2,5.47-12.74,12.25-14.26Zm3.95,10.59c-4.71,0-8.93,3.46-8.93,8.1s4.29,8.17,8.93,8.17,9.07-3.32,9.07-8.17C307.75,336,303.46,332.52,298.68,332.52Z"/><path class="cls-1" d="M356,362l-.69,16.34H348.6L348,362H329.9v-6.3h44.17V362Zm12.33-10.18L352,337.64l-16.48,14.19-4.08-4.5L347.83,331l-.48-6.65h9.07l-.49,6.72,16.41,16.06Z"/><path class="cls-1" d="M404.05,364.37H397.4l-.55-31.64H375.46V326.5h29.28Zm16.82,13.29h-6.64l-.63-51.16h8Z"/><path class="cls-1" d="M477,360.42H470.3l-.48-14.33h-6.65A15.52,15.52,0,1,1,444.27,328l-.35-4.15h8l-.28,4.15a15.46,15.46,0,0,1,11.49,11.42h6.51l-.14-12.87h8Zm-29-26.17a8.87,8.87,0,0,0-8.79,8.65,8.83,8.83,0,0,0,17.65,0A8.74,8.74,0,0,0,447.94,334.25Zm26.58,55.18H449.26l-.7-25.34H456l-.21,6.09h12.12l-.21-6.09h7.48Zm-6.36-13.5H455.62l-.2,7.82h12.8Z"/><path class="cls-1" d="M54,405c0-.48.07-.69.49-.83a25.63,25.63,0,0,1,4.5-.41,11,11,0,0,1,5.47,1.17,4.66,4.66,0,0,1,2.14,3.95,5.37,5.37,0,0,1-3.18,4.71,1.92,1.92,0,0,1-.69.27c.2.07.41.07.69.14a5.61,5.61,0,0,1,4.57,5.68c0,5.88-6.93,5.88-9.07,5.88a17,17,0,0,1-4.36-.41c-.42-.14-.49-.28-.49-1L54,405Zm2.84,8.38h2.49c3.81-.28,4.3-2.84,4.3-3.88,0-3.94-3.74-3.94-4.64-3.94a17.18,17.18,0,0,0-2.08.14v7.68Zm0,10.25a20,20,0,0,0,2.42.13c3.19,0,5.54-1.17,5.54-4.15a4.55,4.55,0,0,0-1-3.05c-1.38-1.59-3.39-1.66-5.05-1.66a18,18,0,0,0-1.94.07v8.66Z"/><path class="cls-1" d="M72.92,417.05c.21,4.22,2.36,6.23,4.57,6.23a4.74,4.74,0,0,0,4.08-2.7c.42-.69.49-.9.84-.9s.62.07.62.76-1.32,5.33-5.89,5.33a5.85,5.85,0,0,1-5.46-3.53,10.42,10.42,0,0,1-1-4.64,11.09,11.09,0,0,1,1-4.91,6,6,0,0,1,5.46-3.39,5.55,5.55,0,0,1,5.68,5.4c0,.83-.48.9-.83,1ZM80,414.42c-.21-1.94-1.45-3.39-3.18-3.39-2.36,0-3.6,1.87-3.88,4.5Z"/><path class="cls-1" d="M92.58,416.5c1.53.76,3.6,1.8,3.6,4.63a4.71,4.71,0,0,1-1.38,3.4,5.32,5.32,0,0,1-3.53,1.17c-4,0-5.13-2.56-5.13-3.46a1.25,1.25,0,0,1,1.18-1.31,1.51,1.51,0,0,1,1.18.76c.07.14.21.34.41.69a2.73,2.73,0,0,0,2.56,1.52,2.17,2.17,0,0,0,2.29-2.28c0-1.87-1.52-2.56-2.84-3.19-2.42-1.17-4.43-2.21-4.43-5,0-2.15,1.45-4.22,4.71-4.22s4.57,2.07,4.57,3a1.08,1.08,0,0,1-1.11,1.18c-.76,0-1-.48-1.32-1a2.57,2.57,0,0,0-2.28-1.66A2.18,2.18,0,0,0,88.84,413c0,1.73,1.39,2.35,2.5,2.83Z"/><path class="cls-1" d="M103.24,411v9.83a3.73,3.73,0,0,0,.35,2.21,1.9,1.9,0,0,0,1.8,1h.76c.56,0,.56.42.56.62,0,.77-1.6,1-2.29,1a3.8,3.8,0,0,1-3.11-1.38,4.51,4.51,0,0,1-.7-2.91V411.1H99c-.41,0-.41,0-.41-.49,0-.76,0-.83.41-.9h1.59v-1.8a1.12,1.12,0,0,1,.42-1l1.38-1.24c.28-.28.42-.35.49-.35.27,0,.34.42.34.76v3.74h2.57c.34,0,.48,0,.48.42,0,.83,0,.9-.42.9l-2.63-.07Z"/><path class="cls-1" d="M121,415.11v9.69c0,.56-.21.56-.63.56h-1.66c-.48,0-.62,0-.62-.56V404.59c0-.56.14-.69.55-.69h10.18c.41,0,.55,0,.55.41v1.18c0,.21,0,.41-.55.41H121v7.34h6.57c.42,0,.56,0,.56.49v1c0,.27-.21.34-.56.34Z"/><path class="cls-1" d="M140.49,422.17c0,1.39-.21,2.15-1.25,2.7a9.35,9.35,0,0,1-4.15.83c-.76,0-5.12,0-5.12-4.15,0-3.46,3.32-4.5,8-5.95v-1.53c0-1.17,0-3.25-2.22-3.25a2.64,2.64,0,0,0-2.49,2c-.21.55-.42,1.31-1.32,1.31a1.17,1.17,0,0,1-1.17-1.24c0-1.8,2.21-3.6,5.33-3.6,4.36,0,4.36,3.25,4.36,4.84v8Zm-2.56-5.05c-3.19,1-5.33,1.73-5.33,4.08a2.75,2.75,0,0,0,3,2.91c2.29,0,2.36-1.38,2.36-2.21Z"/><path class="cls-1" d="M144.85,412.62c0-1,0-1.52.76-2.08a8.63,8.63,0,0,1,4.71-1.24c3,0,4,1.24,4.43,1.8.62-.7,1.66-1.8,4.71-1.8,4.78,0,4.78,3.25,4.78,4.91V424.8c0,.42-.14.56-.56.56h-1.59c-.35,0-.55-.07-.55-.56v-9.9c-.07-1.59-.07-3.94-2.84-3.94a3.06,3.06,0,0,0-2,.69,2.85,2.85,0,0,0-.83,2.49V424.8c0,.42-.07.56-.49.56h-1.52c-.41,0-.62,0-.62-.56V414.63c0-1.11,0-3.74-2.84-3.74s-2.91,2.21-2.91,3.25V424.8c0,.49-.14.56-.55.56h-1.52c-.42,0-.56-.07-.56-.56V412.62Z"/><path class="cls-1" d="M170.05,406.94a1.59,1.59,0,0,1,0-3.18,1.59,1.59,0,1,1,0,3.18Zm1.32,17.93c0,.49-.14.56-.63.56h-1.59c-.41,0-.41-.14-.41-.56v-14.6c0-.42,0-.56.48-.56h1.52c.49,0,.63.07.63.56v14.6Z"/><path class="cls-1" d="M176.07,402.65c0-.48.21-.48.56-.48h1.45c.42,0,.56,0,.56.48V424.8c0,.49-.21.56-.56.56h-1.52c-.49,0-.56,0-.56-.56V402.65Z"/><path class="cls-1" d="M189,427.57c-.83,2.29-2.15,5.13-5.26,5.13-.35,0-2.08,0-2.08-1.46a1.26,1.26,0,0,1,1.25-1.31c.21,0,1.31.27,1.59.27,1.25,0,2.15-1,3.25-4.77L182,410.61a3.71,3.71,0,0,1-.21-.48c0-.42.42-.35.55-.35H184c.48,0,.48.07.69.55l4.15,11.7,3.81-11.7c.14-.48.21-.55.48-.55h1.46c.21,0,.41.07.41.35a1.61,1.61,0,0,1-.14.55Z"/><path class="cls-1" d="M209.65,415.11v9.69c0,.56-.21.56-.62.56h-1.66c-.49,0-.63,0-.63-.56V404.59c0-.56.14-.69.56-.69h10.17c.42,0,.56,0,.56.41v1.18c0,.21,0,.41-.56.41h-7.82v7.34h6.58c.41,0,.55,0,.55.49v1c0,.27-.21.34-.55.34Z"/><path class="cls-1" d="M223.29,424.87c0,.49-.21.49-.56.49h-1.52c-.41,0-.55,0-.55-.49V412.2c0-1,.14-1.45.76-1.8a10.15,10.15,0,0,1,4.71-1c1.45,0,3,.34,3,1.73a1.24,1.24,0,0,1-1.17,1.31c-.56,0-.77-.21-1.25-.83a2,2,0,0,0-1.59-.76c-1.73,0-1.73,1.31-1.8,2.14l-.07,11.91Z"/><path class="cls-1" d="M233,406.94a1.59,1.59,0,0,1,0-3.18,1.59,1.59,0,0,1,1.59,1.52A1.62,1.62,0,0,1,233,406.94Zm1.25,17.93c0,.49-.14.56-.56.56h-1.59c-.41,0-.41-.14-.41-.56v-14.6c0-.42,0-.56.48-.56h1.52c.49,0,.56.07.56.56v14.6Z"/><path class="cls-1" d="M240.39,417.05c.21,4.22,2.35,6.23,4.57,6.23a4.75,4.75,0,0,0,4.08-2.7c.42-.69.49-.9.83-.9s.63.07.63.76-1.32,5.33-5.89,5.33a5.87,5.87,0,0,1-5.47-3.53,10.56,10.56,0,0,1-1-4.64,10.22,10.22,0,0,1,1-4.91,6.05,6.05,0,0,1,5.47-3.39,5.55,5.55,0,0,1,5.68,5.4c0,.83-.49.9-.83,1Zm7-2.63c-.21-1.94-1.45-3.39-3.18-3.39-2.36,0-3.6,1.87-3.88,4.5Z"/><path class="cls-1" d="M266.07,424.8c0,.28,0,.56-.34.63h-1.6c-.48,0-.62-.07-.62-.63V414.63c0-1.46,0-3.74-3.46-3.74-3.18,0-3.18,1.94-3.18,2.7V424.8c0,.56-.21.63-.63.63h-1.45c-.42,0-.56-.07-.56-.56V412.62c0-1.18.21-1.73,1.18-2.22a12.51,12.51,0,0,1,5.06-1c5.6,0,5.6,3.18,5.6,5V424.8Z"/><path class="cls-1" d="M282.69,422.17a2.74,2.74,0,0,1-.42,1.73c-1,1.46-3.87,1.87-5.47,1.87-4.15,0-6.92-2.7-6.92-7.75,0-4.16,2.35-8.72,6.92-8.72a5,5,0,0,1,3.19,1v-7.47c0-.49.07-.69.55-.69h1.53c.41,0,.62.06.55.62l.07,19.38ZM280.06,412a4,4,0,0,0-2.84-1.11c-2.7,0-4.64,2.7-4.64,6.44,0,4.22,2,6.57,4.85,6.57,2.56,0,2.56-1.52,2.63-2.42V412Z"/><path class="cls-1" d="M287.26,402.65c0-.48.21-.48.62-.48h1.45c.42,0,.56,0,.56.48V424.8c0,.49-.21.56-.56.56h-1.52c-.48,0-.55,0-.55-.56V402.65Z"/><path class="cls-1" d="M300.13,427.57c-.83,2.29-2.14,5.13-5.26,5.13-.34,0-2.07,0-2.07-1.46a1.25,1.25,0,0,1,1.24-1.31c.21,0,1.32.27,1.59.27,1.25,0,2.15-1,3.26-4.77l-5.75-14.82a3.71,3.71,0,0,1-.21-.48c0-.42.42-.35.56-.35h1.73c.48,0,.48.07.69.55l4.15,11.7,3.81-11.7c.14-.48.21-.55.49-.55h1.45c.21,0,.42.07.42.35a1.61,1.61,0,0,1-.14.55Z"/><path class="cls-1" d="M334.61,408.4l-6.51,16.4c-.27.63-.27.7-.62.7s-.42-.14-.62-.7l-6.58-16.4v16.4c0,.49-.21.56-.55.56h-1.46c-.27-.07-.27-.21-.27-.56V404.52c0-.49.06-.55.55-.55h2c.41,0,.55.06.69.55l6.51,15.78L334,404.59c.21-.56.27-.62.76-.62h2c.41,0,.62,0,.62.55v20.42c0,.49-.14.49-.62.49H335.1c-.49,0-.56-.07-.56-.56V408.4Z"/><path class="cls-1" d="M351.92,422.17c0,1.39-.14,2.15-1.25,2.7a9.4,9.4,0,0,1-4.15.83c-.76,0-5.19,0-5.19-4.15,0-3.46,3.32-4.5,8-5.95v-1.53c0-1.17,0-3.25-2.22-3.25a2.64,2.64,0,0,0-2.49,2c-.21.55-.42,1.31-1.32,1.31a1.17,1.17,0,0,1-1.17-1.24c0-1.8,2.21-3.6,5.33-3.6,4.36,0,4.36,3.25,4.36,4.84l.07,8Zm-2.56-5.05c-3.19,1-5.33,1.73-5.33,4.08a2.75,2.75,0,0,0,3,2.91c2.29,0,2.36-1.38,2.36-2.21v-4.78Z"/><path class="cls-1" d="M368.19,424.8c0,.28,0,.56-.35.63h-1.59c-.49,0-.62-.07-.62-.63V414.63c0-1.46,0-3.74-3.47-3.74-3.18,0-3.18,1.94-3.18,2.7V424.8c0,.56-.21.63-.62.63H356.9c-.41,0-.55-.07-.55-.56V412.62c0-1.18.21-1.73,1.18-2.22a12.44,12.44,0,0,1,5.05-1c5.61,0,5.61,3.18,5.61,5V424.8Z"/><path class="cls-1" d="M382.45,422.17c0,1.39-.21,2.15-1.25,2.7a9.4,9.4,0,0,1-4.15.83c-.76,0-5.12,0-5.12-4.15,0-3.46,3.32-4.5,8-5.95v-1.53c0-1.17,0-3.25-2.22-3.25a2.64,2.64,0,0,0-2.49,2c-.21.55-.42,1.31-1.32,1.31a1.17,1.17,0,0,1-1.17-1.24c0-1.8,2.21-3.6,5.33-3.6,4.29,0,4.36,3.25,4.36,4.84v8Zm-2.56-5.05c-3.19,1-5.33,1.73-5.33,4.08a2.75,2.75,0,0,0,3,2.91c2.29,0,2.36-1.38,2.36-2.21v-4.78Z"/><path class="cls-1" d="M396.36,411.58A5.37,5.37,0,0,1,392,420a11.75,11.75,0,0,1-1.8-.21,3.11,3.11,0,0,0-1.17,1.94c0,1,1.31,1,3,1.17l3.19.21c1.31.07,4.7.35,4.7,3.67,0,2.08-2.14,5.89-8.65,5.89a8.68,8.68,0,0,1-2.7-.35c-1.87-.49-3-1.73-3-3.19,0-1.66,1.39-3,3.12-4.15-.76-.21-2.29-.55-2.29-2s1.8-2.84,2.64-3.6a4.59,4.59,0,0,1-2-2.14,5.75,5.75,0,0,1-.56-2.63,5,5,0,0,1,5.33-5.2,6.36,6.36,0,0,1,2.29.42,4,4,0,0,0,1.8.42c.41,0,2.7-.42,2.91-.42s.41.83.41,1-.07.28-.34.28Zm-8.17,16.48c0,1.94,2.15,2.63,4.23,2.63,2.28,0,5.05-1.32,5.05-3.33,0-1.73-2-1.93-2.91-2-.62,0-3.8-.14-4.57-.21C389.09,426,388.19,426.81,388.19,428.06Zm5.34-16.76a2.58,2.58,0,0,0-1.67-.55c-1.31,0-2.9.83-2.9,3.39s1.66,4.16,3.18,4.16c1.32,0,2.77-.84,2.77-3.26a6,6,0,0,0-.07-1.11A4.9,4.9,0,0,0,393.53,411.3Z"/><path class="cls-1" d="M403.63,417.05c.21,4.22,2.36,6.23,4.57,6.23a4.69,4.69,0,0,0,4.09-2.7c.41-.69.48-.9.83-.9s.55.07.55.76-1.31,5.33-5.88,5.33a5.86,5.86,0,0,1-5.47-3.53,10.56,10.56,0,0,1-1-4.64,11.09,11.09,0,0,1,1-4.91,6,6,0,0,1,5.47-3.39,5.54,5.54,0,0,1,5.67,5.4c0,.83-.48.9-.83,1Zm7-2.63c-.21-1.94-1.46-3.39-3.19-3.39-2.35,0-3.6,1.87-3.88,4.5Z"/><path class="cls-1" d="M417.41,412.62c0-1,0-1.52.76-2.08a8.63,8.63,0,0,1,4.71-1.24c3,0,3.95,1.24,4.43,1.8.62-.7,1.66-1.8,4.71-1.8,4.77,0,4.77,3.25,4.77,4.91V424.8c0,.42-.13.56-.55.56h-1.52c-.42,0-.56-.07-.56-.56v-9.9c0-1.59-.07-3.94-2.83-3.94a3,3,0,0,0-2,.69,2.85,2.85,0,0,0-.83,2.49V424.8c0,.42-.07.56-.49.56h-1.52c-.42,0-.55,0-.55-.56V414.63c0-1.11,0-3.74-2.84-3.74s-2.91,2.21-2.91,3.25V424.8c0,.49-.14.56-.62.56H418c-.41,0-.55-.07-.55-.56l-.07-12.18Z"/><path class="cls-1" d="M442.75,417.05c.21,4.22,2.35,6.23,4.57,6.23a4.67,4.67,0,0,0,4.08-2.7c.42-.69.49-.9.83-.9s.63.07.63.76-1.32,5.33-5.89,5.33a5.94,5.94,0,0,1-5.47-3.53,10.56,10.56,0,0,1-1-4.64,10.22,10.22,0,0,1,1-4.91A6.05,6.05,0,0,1,447,409.3a5.55,5.55,0,0,1,5.68,5.4c0,.83-.49.9-.83,1Zm7.06-2.63c-.21-1.94-1.45-3.39-3.19-3.39-2.35,0-3.6,1.87-3.87,4.5Z"/><path class="cls-1" d="M468.5,424.8c0,.28,0,.56-.34.63h-1.6c-.48,0-.62-.07-.62-.63V414.63c0-1.46,0-3.74-3.46-3.74-3.19,0-3.19,1.94-3.19,2.7V424.8c0,.56-.2.63-.62.63h-1.45c-.42,0-.56-.07-.56-.56V412.62c0-1.18.21-1.73,1.18-2.22a12.31,12.31,0,0,1,5.05-1c5.61,0,5.61,3.18,5.61,5V424.8Z"/><path class="cls-1" d="M476.19,411v9.83a3.82,3.82,0,0,0,.34,2.21,1.87,1.87,0,0,0,1.73,1H479c.56,0,.56.42.56.62,0,.77-1.59,1-2.29,1a3.8,3.8,0,0,1-3.11-1.38,4.56,4.56,0,0,1-.69-2.91V411.1h-1.6c-.34,0-.41,0-.41-.49,0-.76,0-.83.41-.9h1.6v-1.8a1.14,1.14,0,0,1,.41-1l1.39-1.24c.27-.28.41-.35.48-.35.28,0,.35.42.35.76v3.74h2.56c.34,0,.48,0,.48.42,0,.83,0,.9-.41.9l-2.56-.07Z"/><path class="cls-2" d="M338.14,188.31a78.37,78.37,0,1,0-78.37,78.37A78.38,78.38,0,0,0,338.14,188.31Z"/><path class="cls-3" d="M306.78,209.29c5.82-3.67,9.21-8.86,9.28-14.26.07-5.05-2.63-9.62-7.55-13-.76-.55-1.59-1-2.42-1.52-.42-.21-.83-.48-1.32-.69a40.9,40.9,0,0,0-5.26-2.22c-.07,0-.14-.07-.28-.07-7.27-2.49-15.64-3.39-23.6-3.46,1.1.9,1.87,1.59,2.42,2.08l2.84,2.63A65.61,65.61,0,0,1,294.25,181c.9.27,1.8.55,2.63.83a29,29,0,0,1,4.5,1.93,2.24,2.24,0,0,0,.69.35c.63.35,1.25.69,1.87,1.11,3,1.94,4.57,4.5,4.57,7.06-.07,3-2.35,6-6.16,8.51-8.45,5.54-21,3.95-24.65,3.54a.89.89,0,0,0-.83.2.75.75,0,0,0,0,.76c2.5,6.17,3.6,15.24,1,20.08a13.35,13.35,0,0,1-9.07,6.72,13.62,13.62,0,0,1-10.94-2.36c-7.82-5.47-11.77-14.54-13.77-23.6-1.66.9-3.33,1.73-5,2.49a59.68,59.68,0,0,0,5,15,36.69,36.69,0,0,0,11.56,13.92A20.28,20.28,0,0,0,272,241a20.87,20.87,0,0,0,13.43-10,24.13,24.13,0,0,0,3.11-12.53,28.06,28.06,0,0,0-.48-4.16A35.2,35.2,0,0,0,306.78,209.29Z"/><path class="cls-3" d="M252.71,180.28a175,175,0,0,1,20.36-1.8,4.89,4.89,0,0,0,.55-.69,41.59,41.59,0,0,0-4.29-3.25,129.71,129.71,0,0,0-17.17,1.66c0,.21.07.48.07.69C252.37,178,252.5,179.11,252.71,180.28Z"/><path class="cls-3" d="M242.47,191.15c-.14-3.74,0-6.92.13-9.07.9-.2,2.57-.55,3.67-.76l-.62-4.08c-2.15.41-3.81.83-4.92,1.1l-2.42.63-.28,2.49a108.61,108.61,0,0,0-.41,12.6c.07,2.22.21,4.57.48,7.06,1.6-.69,3.19-1.38,4.71-2.15C242.6,196.41,242.53,193,242.47,191.15Z"/><path class="cls-3" d="M305.6,219.4c-4.15-2.15-8.65-1.39-10,1.66s.9,7.2,5.06,9.35,8.65,1.38,10-1.6S309.76,221.54,305.6,219.4Z"/><path class="cls-4" d="M205.29,188.38c-.21-2.56-4.43-4.36-9.49-4.08s-8.93,2.63-8.72,5.19,4.43,4.36,9.49,4.09S205.5,190.94,205.29,188.38Z"/><path class="cls-4" d="M280.89,178.83l-2.84-2.63c-.48-.49-1.32-1.18-2.42-2.08-.42-.34-.9-.69-1.39-1.11A66.35,66.35,0,0,0,252,162c-.07,1-.14,1.87-.21,2.83,0,.56-.07,1.11-.07,1.67a58.69,58.69,0,0,1,17.59,8c1.52,1,3,2.14,4.29,3.25a4.61,4.61,0,0,0-.55.69c-.07.07-.14.21-.21.28-3.81,4.29-10,9.07-17.66,13.64-1.8,1.11-3.73,2.15-5.6,3.18-2.15,1.18-4.43,2.29-6.65,3.33-1.59.76-3.18,1.45-4.71,2.14-13.43,5.82-25.54,8.52-27.2,3.39-1.39-5.26,7.27-12.73,21.8-18.69,0,0,.63-.2.56-.62s-.7-.48-.7-.48a59.94,59.94,0,0,1-8.51-1.6c-4.43-1.17-7.27-3.18-7.62-5.74-.62-4.09,5.06-9.63,15-11.36a48.62,48.62,0,0,1,13.36-.48c0-1.66,0-3.32.07-4.92a54.51,54.51,0,0,0-17,.35c-12.33,2.15-21.26,9.9-21.26,18.07a13.28,13.28,0,0,0,.14,1.66,12.64,12.64,0,0,0,6.23,8.79c-5,3.39-9.07,7.27-11.35,11.08a13.47,13.47,0,0,0-2.22,6.92,8.58,8.58,0,0,0,1.46,4.85c4.71,7.06,20.42,4.91,38.28-3.53,1.66-.76,3.32-1.6,5-2.5,2.42-1.24,4.84-2.63,7.27-4.08,1.73-1,3.53-2.15,5.26-3.32a137.54,137.54,0,0,0,24.16-19.94Z"/><path class="cls-5" d="M306.71,160.9a16.28,16.28,0,0,0-10.52-9.21,22.11,22.11,0,0,0-15,1.25c-.83-6-3.11-11.5-6.5-15.37-3.74-4.29-8.45-6.3-13.23-5.68-5.05.69-9.48,4.36-12.18,10.11A49.8,49.8,0,0,0,245,160.41c-.07,1.67-.14,3.33-.07,4.92v2.21c.07,2.5.28,4.92.55,7.34.07.76.21,1.46.28,2.22.21,1.38.35,2.77.62,4.08.07.28.07.49.14.76.76,4.37,2.15,9.84,3.12,13.44,1.87-1,3.8-2.08,5.6-3.19-.69-2.63-1.31-5.54-1.87-8.65-.2-1.11-.41-2.29-.55-3.46s-.35-2.29-.41-3.47c0-.2-.07-.48-.07-.69-.14-1.31-.28-2.63-.35-3.94-.07-1.53-.14-3-.14-4.5v-1.11a13.09,13.09,0,0,1,.07-1.66c.07-1,.07-1.87.21-2.84a37.55,37.55,0,0,1,3.53-13.57c1.66-3.46,4.15-5.61,6.78-6,2.36-.34,4.78.84,6.93,3.19,3.32,3.74,5.26,11.77,5,21.95,0,1,.56,1,1.11.55s2.21-1.87,4.64-3.53c4.57-3.12,9.83-4.43,14.12-3.19a9.05,9.05,0,0,1,6,5.2,10.94,10.94,0,0,1,.9,4.29,14.91,14.91,0,0,1-1.66,6.64c.07,0,.14.07.28.07a51.42,51.42,0,0,1,5.26,2.22c.35-.62.69-1.18,1-1.8C308.58,172.32,309,166.09,306.71,160.9Z"/><path class="cls-5" d="M297,181.88c-4.36,5.67-11.7,10.59-15.92,12.87a87.06,87.06,0,0,1-22.92,8c-.34-.76-.9-2.49-1.38-3.87-1.73,1.17-3.53,2.28-5.26,3.32.48,1.45.9,2.63,1.17,3.32l1,2.77,2.91-.48a96.13,96.13,0,0,0,26.31-8.52c6.23-3.11,14.05-8.44,19.31-15.09a2.14,2.14,0,0,0-.69-.35A45.72,45.72,0,0,0,297,181.88Z"/><path class="cls-5" d="M285.18,145.94c3,.7,6.85-2.07,8.58-6.09s.77-7.89-2.28-8.51-6.85,2.07-8.58,6.09S282.2,145.25,285.18,145.94Z"/><path class="cls-6" d="M368.46,188.31A108.69,108.69,0,1,1,259.77,79.55,108.75,108.75,0,0,1,368.46,188.31ZM259.77,110a78.37,78.37,0,1,0,78.37,78.36A78.38,78.38,0,0,0,259.77,110Z"/><path class="cls-2" d="M155.3,197.31l-.2-5.53a5.36,5.36,0,0,1,.76-3.33,3.37,3.37,0,0,1,2.84-1.52,3.77,3.77,0,0,1,2.7.9,7.28,7.28,0,0,1,.62.69,9.58,9.58,0,0,1,.55,1,4.09,4.09,0,0,1,3.88-4,4.22,4.22,0,0,1,3.46,1.46,5.45,5.45,0,0,1,1.46,3.6l.2,6.23Zm1.25-5.47.14,3.81,5.54-.21-.07-3.11a4.63,4.63,0,0,0-.9-2.84,2.64,2.64,0,0,0-2.22-.9,2.39,2.39,0,0,0-1.73.76A3.31,3.31,0,0,0,156.55,191.84Zm7,0,.14,3.54,6.37-.21-.14-3.95a4.86,4.86,0,0,0-1-2.91,2.86,2.86,0,0,0-2.49-1,2.4,2.4,0,0,0-2.21,1.24A6.52,6.52,0,0,0,163.54,191.84Z"/><path class="cls-2" d="M166.31,173.71l-.83,8.37a5.24,5.24,0,0,0,3.74-.76,3.52,3.52,0,0,0,1.52-2.77,4.87,4.87,0,0,0-.62-2.7c-.14-.27-.28-.48-.48-.83a7.85,7.85,0,0,0-.7-.9l1.8.21c.21.35.42.69.56,1l.41.83a6.07,6.07,0,0,1,.42,2.7,5.36,5.36,0,0,1-1.94,3.67,5.47,5.47,0,0,1-4.43,1.24,5.7,5.7,0,0,1-3.95-1.93,5.09,5.09,0,0,1-1.31-4,4.38,4.38,0,0,1,1.94-3.32A6.34,6.34,0,0,1,166.31,173.71Zm-2.07,8,.62-6.44a3.57,3.57,0,0,0-2.22.83,3,3,0,0,0-.9,1.87,3.39,3.39,0,0,0,.56,2.21A4.18,4.18,0,0,0,164.24,181.74Z"/><path class="cls-2" d="M171.5,173.08l-1.73-.41a9.79,9.79,0,0,0,2-2.22c.14-.21.21-.48.35-.69s.14-.48.21-.76a3.29,3.29,0,0,0-.14-2.15,1.71,1.71,0,0,0-1.18-1.11,1.51,1.51,0,0,0-.9.14,4.56,4.56,0,0,0-1.45,2.08,12.56,12.56,0,0,1-1.6,2.7,2.53,2.53,0,0,1-2.56.9,2.63,2.63,0,0,1-1.94-1.66,4.94,4.94,0,0,1-.2-3.19,6.66,6.66,0,0,1,.48-1.45c.21-.42.42-.76.62-1.11a3.69,3.69,0,0,1,.83-.9l1.74.42a7.87,7.87,0,0,0-1.53,1.52,4.65,4.65,0,0,0-.83,1.87,3.35,3.35,0,0,0,.07,1.87,1.57,1.57,0,0,0,1,1c.69.14,1.31-.35,2-1.46.27-.55.55-1,.83-1.59s.55-1,.83-1.59a2.69,2.69,0,0,1,2.77-1.32,3.11,3.11,0,0,1,2.07,1.8,5.25,5.25,0,0,1,.28,3.47,8,8,0,0,1-2.08,3.8Z"/><path class="cls-2" d="M161.54,157.78l.41-1.31,3.12,1,.9-2.77,1.31.41-.9,2.77,6.72,2.15a1.73,1.73,0,0,0,1.31.07,1.35,1.35,0,0,0,.69-1,3.64,3.64,0,0,0,.14-.76,3.14,3.14,0,0,0-.07-.77l1.32.42a3.93,3.93,0,0,1-.07.83c-.07.35-.14.62-.21.9a3.25,3.25,0,0,1-1.11,1.66,2.17,2.17,0,0,1-2,.14L166,159.24l-.56,1.8-1.24-.42.55-1.8Z"/><path class="cls-2" d="M165.07,143.31l4.77-8.93,1.25.7-4,7.47,5.33,2.84,3.81-7.13,1.18.62L173.58,146l6.58,3.53L179.4,151Z"/><path class="cls-2" d="M184,129.74l4.22,3a1.1,1.1,0,0,0,.62.21c.21,0,.35-.07.56-.35.06-.07.06-.14.13-.21s.07-.06.07-.13.07-.14.07-.21,0-.14.07-.14l1,.69a6.12,6.12,0,0,1-.28.69c-.13.21-.2.42-.27.49a1.69,1.69,0,0,1-1.25.83,2.74,2.74,0,0,1-1.38-.69,8.81,8.81,0,0,1,.34.9,3.43,3.43,0,0,1,.14.76,4,4,0,0,1-.76,2.56,3.56,3.56,0,0,1-2.29,1.59,2.76,2.76,0,0,1-2.63-.48,2.84,2.84,0,0,1-1.1-3.12,8.57,8.57,0,0,1,.55-1.8c.28-.69.69-1.52,1.18-2.49l.48-.9a3,3,0,0,0-2.28-.69,2.57,2.57,0,0,0-1.94,1.31,4.41,4.41,0,0,0-.49,1,6,6,0,0,0-.27,1.11c0,.21-.07.49-.07.76v1l-1.39-1a6.94,6.94,0,0,1,1.25-3.74,4.32,4.32,0,0,1,2.91-1.87A4.94,4.94,0,0,1,184,129.74Zm.9,2.57-.56-.42-.34.62a13.71,13.71,0,0,0-1.53,3.4,2,2,0,0,0,.69,2.21,2.1,2.1,0,0,0,.7.28,1.4,1.4,0,0,0,.76,0,1.85,1.85,0,0,0,.76-.35,2.16,2.16,0,0,0,.69-.69,3.29,3.29,0,0,0,.49-2.7A3.57,3.57,0,0,0,184.94,132.31Z"/><path class="cls-2" d="M197.81,115.07l5.06,5-1,1-5.26-5.26a2.35,2.35,0,0,0-1.94-.76,2.38,2.38,0,0,0-1.59.69,3.36,3.36,0,0,0-.84,2.7,4.53,4.53,0,0,0,1.46,3l3.94,3.94-1,1.11-5.27-5.26a2.36,2.36,0,0,0-1.8-.76,2.07,2.07,0,0,0-1.66.69,3.13,3.13,0,0,0-.83,2.56,4.49,4.49,0,0,0,1.53,3.12l3.87,3.87-1,1-8-7.82,1-1,1.32,1.18a3.68,3.68,0,0,1,.14-2.29,4.4,4.4,0,0,1,1.1-1.73,4,4,0,0,1,2.5-1.24,3.07,3.07,0,0,1,1.66.27,5.08,5.08,0,0,1-.14-1.8,4.25,4.25,0,0,1,1.25-2.49,3.44,3.44,0,0,1,2.7-1.18A3.76,3.76,0,0,1,197.81,115.07Z"/><path class="cls-2" d="M195,106.62a.8.8,0,0,1,.76-.21c.28,0,.49.21.77.49a1,1,0,0,1,.27.83.85.85,0,0,1-.41.69.82.82,0,0,1-.76.21,1.45,1.45,0,0,1-.7-.42,1.15,1.15,0,0,1-.34-.9A1,1,0,0,1,195,106.62Zm2.36,4.09,1.17-.9,6.86,8.72-1.18.9Z"/><path class="cls-2" d="M197.19,104.34l1.18-.9L208,116.52l-1.18.9Z"/><path class="cls-2" d="M203.21,106.21l1.39-.9,8.17,6-2.15-9.69,1.38-.83,2.57,12.94a3.68,3.68,0,0,1-.14,2.29,3,3,0,0,1-1.18,1.31,6.76,6.76,0,0,1-.76.35,2,2,0,0,1-.62.14l-.77-1.25a3.08,3.08,0,0,0,.7-.14,1.74,1.74,0,0,0,.62-.27,1.55,1.55,0,0,0,.76-.9,4.57,4.57,0,0,0,0-1.39L213,113Z"/><path class="cls-2" d="M219.2,91.67l9.49-3.46.48,1.31-8,2.91,2.08,5.68,7.61-2.77.49,1.24-7.62,2.77,2.5,7-1.53.55Z"/><path class="cls-2" d="M238.73,91l.34,1.45a.85.85,0,0,1-.41-.07h-.49a.39.39,0,0,0-.27.07,3,3,0,0,0-2.08,2,5.24,5.24,0,0,0-.07,3.11l1.32,5.2-1.46.34-2.7-10.73,1.32-.35.55,1.8a8.45,8.45,0,0,1,.62-1.45,3.44,3.44,0,0,1,2-1.31c.21-.07.42-.07.62-.14A2.63,2.63,0,0,0,238.73,91Z"/><path class="cls-2" d="M240.18,85.92a1,1,0,0,1,.76.14,1.18,1.18,0,0,1,.42.76,1.05,1.05,0,0,1-.14.83,1,1,0,0,1-.69.42.72.72,0,0,1-.76-.21,1.42,1.42,0,0,1-.42-.69,1.08,1.08,0,0,1,.14-1A4.76,4.76,0,0,1,240.18,85.92Zm.21,4.78,1.45-.28,2.08,10.87-1.45.28Z"/><path class="cls-2" d="M254.37,93.81l-8.37,1a5.16,5.16,0,0,0,1.52,3.46,3.65,3.65,0,0,0,3,.9A4.56,4.56,0,0,0,253.06,98a6.16,6.16,0,0,1,.69-.63c.21-.27.48-.55.76-.9l.21,1.8a8.33,8.33,0,0,1-.83.77,6.86,6.86,0,0,1-.76.55,5.39,5.39,0,0,1-2.5,1,5.19,5.19,0,0,1-4-1.11,5.72,5.72,0,0,1-2.22-4,5.8,5.8,0,0,1,1-4.3A5.09,5.09,0,0,1,249,89a4.15,4.15,0,0,1,3.67,1.17A6,6,0,0,1,254.37,93.81Zm-8.3-.2,6.43-.76a3.12,3.12,0,0,0-1.31-1.94,2.71,2.71,0,0,0-2.08-.42,3.38,3.38,0,0,0-2.08,1A4.12,4.12,0,0,0,246.07,93.61Z"/><path class="cls-2" d="M266.14,92.5,266,99.91h-1.52l.14-7.34a2.63,2.63,0,0,0-.83-1.94,3.13,3.13,0,0,0-2-.83,3.52,3.52,0,0,0-2.7,1.25,4.49,4.49,0,0,0-1.18,3l-.07,5.68h-1.38l.14-11.08h1.31V90.7a6.52,6.52,0,0,1,1.32-1.39,4.44,4.44,0,0,1,2.77-.9,4.55,4.55,0,0,1,3,1.11A4.25,4.25,0,0,1,266.14,92.5Z"/><path class="cls-2" d="M277.43,85l1.59.21-2.29,16.06-1.38-.21.14-1.8a3,3,0,0,1-.69.63,4.39,4.39,0,0,1-.63.48,3.8,3.8,0,0,1-2.49.42,4.41,4.41,0,0,1-3.25-2.15,6.13,6.13,0,0,1-.83-4.15,6.38,6.38,0,0,1,2-4,4.76,4.76,0,0,1,3.95-1.25,4.24,4.24,0,0,1,1.66.56l.62.41a5.11,5.11,0,0,1,.77.63Zm-1.53,10.8.42-3.18a6.67,6.67,0,0,0-1.52-1.39,3.84,3.84,0,0,0-1.39-.48,3.35,3.35,0,0,0-2.91,1,5.78,5.78,0,0,0-1.45,3,4.94,4.94,0,0,0,.62,3.33,3,3,0,0,0,2.22,1.45,2.91,2.91,0,0,0,2.49-.83A4.54,4.54,0,0,0,275.9,95.82Z"/><path class="cls-2" d="M281.79,85.92l1.45.35-3.53,15.85-1.45-.34Z"/><path class="cls-2" d="M284.35,91.67l1.59.48.83,10.11,5.89-8,1.59.48-8.1,10.46a3.27,3.27,0,0,1-1.8,1.38,2.94,2.94,0,0,1-1.73-.07,1.92,1.92,0,0,1-.76-.34,3.91,3.91,0,0,1-.56-.35l.42-1.38a5.62,5.62,0,0,0,.55.41,2.49,2.49,0,0,0,.63.28,1.67,1.67,0,0,0,1.17,0,3,3,0,0,0,1-.9l.49-.76Z"/><path class="cls-2" d="M297.78,108l8.38-13.92L308,95.2,306.43,110l12.47-8.17,1.73,1-8.24,13.92-1.25-.76,7.27-12.12-13,8.66-.63-.35,1.59-15.51-7.26,12.12Z"/><path class="cls-2" d="M324.5,117.84l-3.39,3.94c-.14.21-.28.35-.28.56a.62.62,0,0,0,.28.55c.07.07.14.07.14.14s.07.07.14.07.14.07.21.07a.24.24,0,0,1,.13.07l-.76.9a2.24,2.24,0,0,1-.69-.35c-.21-.14-.35-.28-.48-.34-.56-.49-.77-.9-.7-1.32a2.7,2.7,0,0,1,.76-1.32,6,6,0,0,1-.9.28,3,3,0,0,1-.76.07,3.9,3.9,0,0,1-2.49-1,4.19,4.19,0,0,1-1.45-2.35,3,3,0,0,1,.69-2.63,2.7,2.7,0,0,1,3.18-.83,5.57,5.57,0,0,1,1.73.76c.7.34,1.46.83,2.36,1.38l.83.56a3.44,3.44,0,0,0,.9-2.22,2.75,2.75,0,0,0-1.11-2c-.28-.2-.55-.41-.9-.62a5,5,0,0,0-1.11-.35c-.2-.07-.48-.07-.76-.13a4.17,4.17,0,0,0-1-.07l1.11-1.32a7,7,0,0,1,3.67,1.52,4,4,0,0,1,1.59,3.05A3.5,3.5,0,0,1,324.5,117.84Zm-2.56.69.42-.48-.63-.42a13.45,13.45,0,0,0-3.25-1.8,1.93,1.93,0,0,0-2.28.48,2.84,2.84,0,0,0-.35.63,2.76,2.76,0,0,0-.07.76,1.43,1.43,0,0,0,.28.76,2.8,2.8,0,0,0,.62.76,3.39,3.39,0,0,0,2.63.76A3.84,3.84,0,0,0,321.94,118.53Z"/><path class="cls-2" d="M333.78,127.18l-5.47,5-1-1.11,5.4-4.91a2.61,2.61,0,0,0,.83-1.94,2.75,2.75,0,0,0-.83-2,3.38,3.38,0,0,0-2.77-1.11,4.25,4.25,0,0,0-3,1.18l-4.23,3.87-1-1,8.17-7.48.9,1-1.45,1.45a6,6,0,0,1,1.94,0,4.81,4.81,0,0,1,2.56,1.46,4.57,4.57,0,0,1,1.25,2.9A3.54,3.54,0,0,1,333.78,127.18Z"/><path class="cls-2" d="M340.08,136.32l-4.29,3a1,1,0,0,0-.42.48.56.56,0,0,0,.14.63c.07.07.07.13.14.13s.07.07.14.14.14.07.21.14a.19.19,0,0,0,.13.07l-1,.69a4.5,4.5,0,0,1-.55-.48,2.67,2.67,0,0,0-.35-.42c-.41-.55-.55-1-.34-1.45s.41-.62,1.11-1.11h-1a2.39,2.39,0,0,1-.76-.14,3.74,3.74,0,0,1-2.15-1.59,4.25,4.25,0,0,1-.76-2.7,2.94,2.94,0,0,1,1.31-2.35,3,3,0,0,1,3.33-.07,8.9,8.9,0,0,1,1.52,1.17c.55.56,1.25,1.18,1.94,1.94l.62.76a3.48,3.48,0,0,0,1.45-1.93A2.77,2.77,0,0,0,340,131a3.57,3.57,0,0,0-.69-.76,9.57,9.57,0,0,0-1-.62c-.21-.07-.42-.21-.69-.28s-.56-.21-.9-.28l1.38-1a6.41,6.41,0,0,1,3.12,2.43,4.14,4.14,0,0,1,.76,3.39A5.82,5.82,0,0,1,340.08,136.32Zm-2.63,0,.55-.41-.48-.56a12.56,12.56,0,0,0-2.7-2.56,1.89,1.89,0,0,0-2.29-.07,2,2,0,0,0-.48.56,1.29,1.29,0,0,0-.21.69,1.69,1.69,0,0,0,.07.83,3.37,3.37,0,0,0,.42.9,3.31,3.31,0,0,0,2.35,1.38A4.15,4.15,0,0,0,337.45,136.32Z"/><path class="cls-2" d="M348.18,145.32l1.32-.21.48,1-8.86,4.71a5.34,5.34,0,0,1-4.09.69,6.17,6.17,0,0,1-3.67-4.84,7.53,7.53,0,0,1,.14-2.36l1.6-.83a14.45,14.45,0,0,0-.35,1.66,5.1,5.1,0,0,0,0,1.46,4.13,4.13,0,0,0,.48,1.45A4,4,0,0,0,337.1,150a3.64,3.64,0,0,0,3.12-.35l1.18-.62a5,5,0,0,1-2.57-.83,4.66,4.66,0,0,1-1.17-1.38,4.28,4.28,0,0,1-.14-3.81,6.19,6.19,0,0,1,2.77-3.05,6.31,6.31,0,0,1,4-.69,4.52,4.52,0,0,1,3.46,2.49,4.75,4.75,0,0,1,.56,2.22c0,.2-.07.48-.07.76C348.39,144.77,348.32,145,348.18,145.32Zm-3.95,2.08,2.7-1.46a5,5,0,0,0,.28-1,3.7,3.7,0,0,0,.07-.84,3.66,3.66,0,0,0-.07-.9,4.47,4.47,0,0,0-.35-.83,3.15,3.15,0,0,0-2.14-1.73,4.53,4.53,0,0,0-3.46.56,4.18,4.18,0,0,0-2.22,2.28,3.12,3.12,0,0,0,.07,2.7,3.06,3.06,0,0,0,2.15,1.66A4.2,4.2,0,0,0,344.23,147.4Z"/><path class="cls-2" d="M349.84,159.58l-3-7.89a5.43,5.43,0,0,0-3,2.35,3.62,3.62,0,0,0-.14,3.19,4.77,4.77,0,0,0,1.73,2.15c.21.13.49.34.76.48a6.85,6.85,0,0,0,1,.48l-1.66.63c-.35-.21-.69-.42-1-.63s-.48-.41-.69-.55a5.5,5.5,0,0,1-1.53-6.37,5.65,5.65,0,0,1,3.4-3.11,6.05,6.05,0,0,1,4.43,0,5.16,5.16,0,0,1,2.91,3,4.26,4.26,0,0,1-.28,3.88A4.65,4.65,0,0,1,349.84,159.58Zm-1.66-8.1,2.28,6.1a3.17,3.17,0,0,0,1.6-1.74,3.13,3.13,0,0,0-.07-2.07,2.9,2.9,0,0,0-1.53-1.73A3.7,3.7,0,0,0,348.18,151.48Z"/><path class="cls-2" d="M355,177.44l-7,1.39-.28-1.45,7.34-1.46a2.54,2.54,0,0,0,1.73-1.18,2.16,2.16,0,0,0,.28-1.73,3.37,3.37,0,0,0-1.73-2.21,4.37,4.37,0,0,0-3.25-.42l-5.47,1.11-.28-1.45,7.34-1.46a2.1,2.1,0,0,0,1.59-1.1,2.77,2.77,0,0,0,.42-1.8,3.39,3.39,0,0,0-1.67-2.15,4.93,4.93,0,0,0-3.46-.49l-5.4,1.11-.27-1.45,10.87-2.15.27,1.39-1.73.41a5,5,0,0,1,1.87,1.39,4.36,4.36,0,0,1,.83,1.87,4.18,4.18,0,0,1-.34,2.77,2.64,2.64,0,0,1-1.18,1.24,4.18,4.18,0,0,1,1.59.9,4.36,4.36,0,0,1,1.39,2.42,3.72,3.72,0,0,1-.49,2.91A5.38,5.38,0,0,1,355,177.44Z"/><path class="cls-2" d="M354.27,189.84l-.34-8.45a5.47,5.47,0,0,0-3.6,1.25,3.76,3.76,0,0,0-1.18,3,4.94,4.94,0,0,0,1,2.63,2.79,2.79,0,0,0,.62.7,5.41,5.41,0,0,0,.83.83l-1.8.07-.69-.9c-.21-.28-.35-.56-.48-.76a5.45,5.45,0,0,1,.62-6.44,5.57,5.57,0,0,1,4.15-1.87,5.73,5.73,0,0,1,4.16,1.38,4.78,4.78,0,0,1,1.8,3.74,4.3,4.3,0,0,1-1.46,3.6A5.62,5.62,0,0,1,354.27,189.84Zm1-8.24.28,6.51a3.51,3.51,0,0,0,2.08-1.18,3.24,3.24,0,0,0-.28-4.15A4.44,4.44,0,0,0,355.24,181.6Z"/><path class="cls-2" d="M348.32,191.15l.48.07c-.07,1,.21,1.39,1.11,1.46l6,.55c.83.07,1.11-.14,1.18-1.18h.35l.55,2.7-1.8-.14a5.83,5.83,0,0,1,1.45,3.95c-.13,1.66-1.31,2.49-3.18,2.35l-5.33-.48c-.9-.07-1.25.28-1.32,1.24l-.48-.06.35-4,.48.07c-.07,1,.21,1.38,1.11,1.45l5.4.49c1.17.07,2-.21,2.14-1.59a4.91,4.91,0,0,0-1.24-3.53l-5.82-.56c-.9-.07-1.24.28-1.31,1.25l-.49-.07Z"/><path class="cls-2" d="M356.14,204.44l.42.07c-.14,1.46.69,2.5,3,3.05l-.07.41-3.32-.69-.55,2.77-.63-.14.56-2.77-7.34-1.45c-.76-.14-1.25.28-1.39,1.11a2.69,2.69,0,0,0,.7,2l-.21.2a2.92,2.92,0,0,1-1.25-3c.21-1.18,1.11-1.87,2.7-1.53l7.06,1.39Z"/><path class="cls-2" d="M194.49,244.74a12.67,12.67,0,0,1-2.22,1.45,14.23,14.23,0,0,1-4.22,1.38,16.15,16.15,0,0,1-4.5,0,9.5,9.5,0,0,1-1.59-.34,11.92,11.92,0,0,1-1.46-.49c-.69-.27-1-.41-1.1-.55l.2-1.52a5.87,5.87,0,0,0,1,.48,12,12,0,0,0,2.57.83,11.59,11.59,0,0,0,3.8.21,10.86,10.86,0,0,0,1.6-.28,10,10,0,0,0,1.52-.48l1-.42c.34-.14.62-.34.9-.48a.67.67,0,0,0,.34-.28c.07-.14.21-.14.35-.21l-2.29-2.7c-.34-.41-.69-.83-1-1.1s-.49-.56-.7-.77a3.44,3.44,0,0,1-.48-.55l-.42-.41,1.11-1c.28.34.62.76,1,1.24s.9,1.11,1.45,1.8l.28.35c.76.9,1.45,1.66,1.87,2.14a9.94,9.94,0,0,0,1.18,1.25Zm.62,11.9-2.21-2.56-6.16,5.26-1-1.1,9.34-7.9c.83-.76,1.53-1.31,2.08-1.8s1-.83,1.18-1a8,8,0,0,0,.76-.7,3.22,3.22,0,0,0,.69-.69l.28.35c.2.27.41.48.55.69s.14.35,0,.41l-.28.14c-.13.07-.27.14-.27.21l-6.23,5.33,2.28,2.56Z"/><path class="cls-2" d="M213.8,270.14l-1-.69c-1-.69-1.94-1.38-2.77-2s-1.6-1.17-2.36-1.66l-1.52-1-2.63-1.8c-.9-.62-1.73-1.17-2.56-1.73-.28-.2-.63-.41-1-.69s-.76-.48-1.25-.76l.83-1.18c.07.07.21.14.28.21a1,1,0,0,0,.28.21c.48.34.9.69,1.38,1l1.46,1,3.25,2.29,1.11-1.52a4.82,4.82,0,0,1,.41-.63.5.5,0,0,0,.14-.27l.49.34c.27.21.55.42.69.56s.21.27.14.34l-.28.28-.28.28-1.1,1.59c.41.27.9.62,1.45,1s1.25.83,2.08,1.38,1.52,1,2.07,1.39,1.11.69,1.46,1Zm-7.2,5.2-1.31-.9c.28-.28.48-.63.76-.9a8,8,0,0,0,.69-1l1.46-2.15-3.95-2.84L199,264l.69-1,2.15,1.6c.76.55,1.38,1,1.94,1.38s1,.76,1.45,1l.69.48c.49.35,1,.7,1.39,1s.76.49,1,.7.62.41.9.55.55.34.76.48Zm8.45-9.49-.28.14a.48.48,0,0,1-.27.07c-.07,0-.14.07-.21.07l-.69.34a9.51,9.51,0,0,1-1.25-1.38,12.31,12.31,0,0,1-1.11-1.66,8.7,8.7,0,0,1-.69-1.59,6,6,0,0,1-.28-1,4.86,4.86,0,0,1-.07-1v-.42a3.79,3.79,0,0,0-.48.21,8.61,8.61,0,0,1-1.52.28,7.15,7.15,0,0,1-1.73,0,12,12,0,0,1-2.77-.56c-.28-.07-.76-.27-1.32-.48l-.28-1.73h.14c.28.14.49.28.7.41a3.58,3.58,0,0,0,.55.28,10.73,10.73,0,0,0,1.45.55,9.78,9.78,0,0,0,1.39.28,8.14,8.14,0,0,0,2.7-.21c.21-.07.48-.2.69-.27a4.19,4.19,0,0,0,.69-.49l-2.28-1.59c-.56-.42-1.11-.76-1.53-1s-.9-.55-1.38-.83l.76-1c.62.49,1.39,1,2.22,1.66s1.87,1.32,3,2.08l.56.42c.62.41,1.17.83,1.73,1.17s1,.7,1.52,1,.9.62,1.32.83.83.49,1.17.76l-.76,1-2.42-1.73-2.49-1.66a4.89,4.89,0,0,0-.35,1.11,7.68,7.68,0,0,0,.21,1.66,8.83,8.83,0,0,0,2,3.18l.55.56a7.24,7.24,0,0,0,.76.62Z"/><path class="cls-2" d="M231.53,286.07l-1.11-.42c-2.77-1.11-4.43-1.73-5-1.94l-6.79-2.49a1.18,1.18,0,0,1,.14-.35,4.8,4.8,0,0,1,.28-.55,2.44,2.44,0,0,0,.27-.76c.14-.28.21-.56.35-.83.28-.69.42-1.18.55-1.59s.21-.7.28-.9l.21.06a4.62,4.62,0,0,1,1,.42c.21.14.34.28.27.42a3.31,3.31,0,0,1-.13.34c-.07.14-.14.21-.14.28l-.56,1.31-.48,1.39c.28.14.9.34,1.8.69l3.18,1.25,2.15.76c.62.21,1.25.41,1.73.62s1,.35,1.38.49a7.56,7.56,0,0,1,1.11.41Zm-1.8-8.93c0,.06-.14.13-.28.2l-1,.56a5.87,5.87,0,0,1-.9-.9c-.34-.42-.62-.9-1-1.53a7.24,7.24,0,0,1-.76-2c0-.14-.07-.28-.07-.42a1.29,1.29,0,0,0-.07-.48l-.27.27c-.07.07-.21.14-.28.21a3.56,3.56,0,0,1-.9.55c-.35.21-.76.35-1.18.56a12.58,12.58,0,0,1-2.77.76h-.27a.89.89,0,0,0-.42.07l-.55-.76c-.07-.07-.07-.14-.14-.21s-.07-.14-.14-.21l-.07-.14h1a6.67,6.67,0,0,0,1.52-.34,13.47,13.47,0,0,0,1.53-.56,5.09,5.09,0,0,0,1.93-1.24,4,4,0,0,0,1.11-1.59l-2.21-.9c-.42-.14-.77-.28-1-.35a2.37,2.37,0,0,1-.56-.21c-.14-.07-.2-.07-.27-.14a.42.42,0,0,0-.28-.07l.48-1.17,5.2,2,5,1.8-.48,1.25-2.15-.83a7,7,0,0,1-.69-.28c-.21-.07-.35-.14-.56-.2a3.2,3.2,0,0,1-.41-.14c-.14-.07-.28-.07-.42-.14a3.58,3.58,0,0,0-.2.83c-.07.28-.07.55-.14.76a5,5,0,0,0,.55,2.42,4.54,4.54,0,0,0,.55,1,6.56,6.56,0,0,0,.7.83l.62.63A.77.77,0,0,1,229.73,277.14Zm0-8.87-2.08-.83-2.7-1,.42-1.17,2.63,1,2.14.76Zm7.68.77a.62.62,0,0,1-.21.34.67.67,0,0,0-.2.35l-2.15,5.67-2.42,6.51c-.07.21-.14.28-.28.28a3,3,0,0,1-.76-.21l-.42-.14c-.14-.07-.2-.07-.14-.14a.52.52,0,0,1,.07-.27c.07-.14.14-.42.35-1s.48-1.25.9-2.22.69-1.73.9-2.28.35-.9.42-1c.34-.9.62-1.73.9-2.42s.48-1.32.62-1.8.34-1,.48-1.39l.42-1.24.28.14a3.91,3.91,0,0,1,1,.41A.51.51,0,0,1,237.41,269Z"/><path class="cls-2" d="M253.33,284.68H251a36.23,36.23,0,0,1-4.36-.21c-.76-.07-1.66-.13-2.56-.13s-1.87-.07-2.84-.07h-.69c-.07,0-.14-.07-.21-.14a.52.52,0,0,1-.07-.35v-.48a1.54,1.54,0,0,1,.07-.56l3.18.35a7.94,7.94,0,0,0,1.39.07h1.24l.14-1.25a11,11,0,0,0-1.24-.27,2.21,2.21,0,0,1-.83-.35,2.82,2.82,0,0,1-1.8-2.91c.07-.83.69-1.45,1.8-1.87a7.23,7.23,0,0,1,3.25-.27,5.74,5.74,0,0,1,3.18,1.1,2.33,2.33,0,0,1,1,2.22,2.6,2.6,0,0,1-2,2.21c-.21.07-.49.14-.77.21s-.69.07-1,.14l-.14,1.11c.41,0,.9.07,1.45.07s1,.07,1.59.07h2.91Zm0-8.44-6.23-.77-5.81-.55.14-1.45,3,.41c1,.14,1.87.28,2.7.35l.63.07c1.17.14,2.28.2,3.18.34l2.63.21Zm-3,3.11c.07-.48-.28-1-1-1.38a3.44,3.44,0,0,0-.9-.35l-1-.21a7.77,7.77,0,0,0-2.15-.07c-.9.21-1.45.63-1.52,1.32a1.47,1.47,0,0,0,.9,1.45,5.39,5.39,0,0,0,2.36.76,3.73,3.73,0,0,0,2.42-.34A1.53,1.53,0,0,0,250.29,279.35Zm-.21-6-2.21-.28-3-.28.14-1.24a1.52,1.52,0,0,1,.48.07,8.56,8.56,0,0,0,1,.13c.42.07.76.07,1,.14a3.44,3.44,0,0,1,.48.07,12.67,12.67,0,0,0,1.46.14,3.76,3.76,0,0,0,.9,0Zm8.79,8.58-2.9-.28-.84,8.24-1.52-.14c.07-.48.14-1,.21-1.73s.21-1.59.28-2.56.2-1.94.34-2.77.21-1.66.28-2.42a12.2,12.2,0,0,1,.14-1.32c.07-.55.14-1.24.21-2s.13-1.53.2-2.15.14-1.18.21-1.66a7.14,7.14,0,0,0,.07-1.11v-.48l.55.07c.42.07.7.07.9.13s.28.14.28.35a2.75,2.75,0,0,1-.14.42,1.64,1.64,0,0,0-.14.48l-.83,7.48,2.91.27Z"/><path class="cls-2" d="M290.79,277.34c-.56.14-1.18.21-1.8.42l-1.87.41c-.69.21-1.45.35-2.22.56s-1.45.41-2.07.55l.76,3.19c.21.9.41,1.73.62,2.42l.62,2.08-1.59.41-1.11-4.78-.76-3-8,2.07-.34-1.31,8.79-2.15c.76-.2,1.66-.41,2.56-.62s1.94-.48,3-.83c.76-.21,1.8-.49,3-.9Zm-3.67-6c.28,1-.14,2-1.32,2.91a11,11,0,0,1-4.43,1.94,16.19,16.19,0,0,1-4.57.48c-1.8-.21-2.83-.9-3.11-2.08a3,3,0,0,1,1.45-3.25,14.19,14.19,0,0,1,4.43-1.8,13.54,13.54,0,0,1,2.63-.42,12.24,12.24,0,0,1,2.22.07C285.94,269.52,286.84,270.21,287.12,271.32Zm-1.45.35c-.21-.77-.84-1.18-1.87-1.25a10.83,10.83,0,0,0-3.81.35,10,10,0,0,0-3.81,1.52c-.83.55-1.11,1.18-1,1.8.21.9,1,1.31,2.42,1.38a14.49,14.49,0,0,0,3.47-.48,15.23,15.23,0,0,0,3.53-1.32A2,2,0,0,0,285.67,271.67Z"/><path class="cls-2" d="M308.93,262.53v.28a1,1,0,0,1-.14.41l-.07.76a1.18,1.18,0,0,1-.35.14c-.14.07-.21.07-.34.14a11.56,11.56,0,0,1-4.16.48A9,9,0,0,1,301,264a2.82,2.82,0,0,0-.55-.27,3.23,3.23,0,0,1-.62-.42v.76a1.85,1.85,0,0,1-.07.62,8.52,8.52,0,0,1-1.18,3.26,9.84,9.84,0,0,1-.69,1l-.83,1-.62.62a8.86,8.86,0,0,1-.84.69,1.05,1.05,0,0,0-.34-.14c-.07-.07-.14-.07-.21-.14a.24.24,0,0,1-.14-.07c-.07,0-.14-.07-.34-.13s-.28-.07-.28-.14v-.07c.14-.07.35-.21.48-.28s.28-.21.42-.28a7.6,7.6,0,0,0,1.73-1.66,7.83,7.83,0,0,0,1.18-2.07,7.53,7.53,0,0,0,.55-2.43,3.1,3.1,0,0,0-.07-.76c-.07-.28-.14-.62-.21-1l1.32-.55c.14-.07.21-.07.28.07s.07.07.07.14,0,.07.06.13v.14a2.23,2.23,0,0,0,.49.42,6.84,6.84,0,0,0,3.25,1.18,8,8,0,0,0,3.53-.42,4.83,4.83,0,0,0,.7-.28,4.4,4.4,0,0,0,.83-.34C308.86,262.46,308.93,262.46,308.93,262.53Zm3,4-7.47,4,1.66,3,2.35,4.15-1.38.76-3.88-7.27c-.14.07-.35.21-.62.35s-.63.34-1,.55-.7.42-1,.56a1.17,1.17,0,0,1-.42.2l-4.36,2.5-.62-1.18,8.1-4.29c1-.49,1.87-1,2.84-1.53s1.87-1,2.77-1.59c.62-.41,1.45-.83,2.35-1.38Z"/><path class="cls-2" d="M318.41,250.41a12.12,12.12,0,0,1,1.59,2.22,14.29,14.29,0,0,1,1.18,2.56,12.62,12.62,0,0,1,.55,2.91,20,20,0,0,1-.13,3.39,15.15,15.15,0,0,1-.35,1.73c-.14.55-.35,1.11-.55,1.73-.35.83-.49,1.32-.63,1.39a.26.26,0,0,1-.21-.07h-.48a.63.63,0,0,0-.35.07h-.48c-.07-.07,0-.14.07-.21a.87.87,0,0,1,.14-.21s.07-.14.2-.35.21-.48.35-.83a10.73,10.73,0,0,0,.55-1.45,10,10,0,0,0,.35-1.38,10.71,10.71,0,0,0,.21-3.6,13,13,0,0,0-.83-3.19,7,7,0,0,0-.49-1,4.09,4.09,0,0,0-.55-.9,1.68,1.68,0,0,1-.21-.34c-.07-.14-.14-.21-.21-.35L315,255.4c-.69.62-1.32,1.17-1.73,1.59l-1,1-.9-1c.14-.14.35-.28.48-.42s.42-.34.63-.48l1-.9Zm3-5.54c.07.07.07.14.2.28s.21.28.28.42l5.33,6,6.3,6.79-1.11,1.1a6.69,6.69,0,0,0-.69-.76c-.27-.28-.55-.62-.83-1-.62-.76-1.45-1.59-2.35-2.7-.49-.55-.9-1-1.25-1.38a10.45,10.45,0,0,0-.83-.9c-2.28-2.49-3.81-4.09-4.64-4.92-.41-.41-.76-.83-1-1.11l-.83-.83.49-.41c.21-.21.41-.35.55-.49S321.39,244.81,321.46,244.87Z"/><path class="cls-2" d="M335,235.74a3.66,3.66,0,0,1,1.8,2.63,5.34,5.34,0,0,1-1,3.74,4.7,4.7,0,0,1-3.19,2.28,3.93,3.93,0,0,1-2.91-.55A4.07,4.07,0,0,1,327.9,241a4.75,4.75,0,0,1,.83-3.53,5.5,5.5,0,0,1,2.9-2.36A4,4,0,0,1,335,235.74Zm-.77,1.1a2.85,2.85,0,0,0-2.56-.41,3.82,3.82,0,0,0-1.94,1.52,3.88,3.88,0,0,0-.62,2.42,3.16,3.16,0,0,0,1.39,2.22,2.91,2.91,0,0,0,2.35.42,3.35,3.35,0,0,0,1.94-1.6,3.41,3.41,0,0,0,.62-2.7A2.75,2.75,0,0,0,334.26,236.84Zm-.69-9a2.07,2.07,0,0,1,.21.28l.42.42,3.94,2.49,2.22,1.45a2.58,2.58,0,0,0,.62.35,4.13,4.13,0,0,1,.55.34l-.69,1.32a6.61,6.61,0,0,1-.83-.55c-.28-.21-.62-.42-1-.7s-.62-.48-.83-.62a2.89,2.89,0,0,1-.41-.28l-1,1.6c-.14.2-.28.48-.49.76s-.27.48-.41.76l-1.11-.69c.07-.07.14-.21.21-.28s.2-.28.27-.42l.49-.76c.28-.41.48-.76.62-1a3.36,3.36,0,0,0,.28-.48l-3.12-2-1.17-.69c.07-.14.2-.28.34-.49s.21-.27.35-.41l.28-.28C333.36,227.91,333.5,227.77,333.57,227.84Zm9.28,6.1c.07.07.14.07.14.13a1.6,1.6,0,0,0,.34.35l5.27,3.32-.7,1.25-.41-.14-2.84,4.43c-.55.83-1,1.53-1.32,2s-.62,1-.9,1.59l.28.35-.69,1.24c-.28-.2-.62-.41-1-.69s-1-.69-1.73-1.17-1.11-.7-1.45-1a5.78,5.78,0,0,0-.9-.56c-.21-.14-.42-.21-.63-.34a4,4,0,0,0-.48-.28l.27-.49a2.57,2.57,0,0,1,.49-.62c.14-.14.28-.21.35-.14a1.12,1.12,0,0,1,.13.21.38.38,0,0,0,.28.21l1,.69a5.48,5.48,0,0,1,.35-.48c.13-.21.27-.42.48-.7s.35-.55.55-.76a3.64,3.64,0,0,0,.42-.69l3.39-5.47-1.66-1c.07-.14.21-.27.28-.41s.2-.28.27-.42C342.57,234,342.78,233.87,342.85,233.94Zm3.6,4.15-2.08-1.38a6,6,0,0,1-.34.55,1.58,1.58,0,0,0-.28.41c-.55.9-1,1.67-1.45,2.29s-.7,1.11-.9,1.45c-.49.76-.9,1.46-1.25,1.94a10.77,10.77,0,0,0-.83,1.46l2.08,1.38,2.35-3.53c.28-.42.55-.83.83-1.32s.62-1,1-1.59C345.76,239.34,346,238.78,346.45,238.09Z"/><path class="cls-2" d="M175.59,220.78a4.3,4.3,0,1,1-4.29-4.29A4.36,4.36,0,0,1,175.59,220.78Z"/><path class="cls-2" d="M354.13,220.78a4.29,4.29,0,1,1-4.29-4.29A4.35,4.35,0,0,1,354.13,220.78Z"/><rect class="cls-7" y="0.12" width="512" height="512"/></svg>