<svg id="Layer_1" data-name="Layer 1" xmlns="http://www.w3.org/2000/svg" viewBox="0 0 512 512"><defs><style>.cls-1{fill:#2a609c;}.cls-2{fill:#468ccb;}.cls-3{fill:none;}</style></defs><path class="cls-1" d="M307.76,175a5.56,5.56,0,0,0-11.12,0,5.49,5.49,0,0,0,5.56,5.56A5.58,5.58,0,0,0,307.76,175Z"/><path class="cls-1" d="M255.93,80.07A112.41,112.41,0,1,0,368.37,192.51,112.44,112.44,0,0,0,255.93,80.07Zm22.79,200H234.86V144.19L218.45,144l.21-22,21.14-18.87h38.92V280Zm10.92-105a12.63,12.63,0,1,1,12.63,12.63A12.72,12.72,0,0,1,289.64,175Zm5.14,41,39.27-53.89h9.13L303.91,216Zm40.5,0a12.63,12.63,0,1,1,12.63-12.63A12.6,12.6,0,0,1,335.28,216Z"/><path class="cls-1" d="M335.21,197.8a5.56,5.56,0,1,0,5.57,5.56A5.68,5.68,0,0,0,335.21,197.8Z"/><path class="cls-2" d="M285.65,84.19c.9,8.79,6.18,16.55,13.53,21.76C308,112.2,324.51,126,316,138c-2.4,3.43-7.55,8.58-6.45,13.45,2.06,9.48,13,4.81,18.06,2.54,3.63-1.71,8-3,12.15-2.54,2.12.28,8.92,1.86,10,4,1.92,3.71-4.67,7.42-8.86,9.68L313.8,202.4c-.48,2.47-.48,4.73.34,6.38,1.72,3.23,9.34,3.84,12.29,4.74.82.27,1.58.48,2.4.75a12.56,12.56,0,1,1,6.38,1.79,9.92,9.92,0,0,1-1.44-.07c2.82,1,5.56,2.06,8.31,3.16,3.77,1.51,14.48,4.73,16.54,8.78,2.95,5.63-9.4,10.37-12.63,13.46-5.7,5.35-15.92,22.17-11.46,31.57A112.6,112.6,0,0,0,285.65,84.19Z"/><path class="cls-2" d="M340.71,203.36a5.56,5.56,0,1,0-5.56,5.56A5.54,5.54,0,0,0,340.71,203.36Z"/><path class="cls-2" d="M234.86,280V239.67c-4.81-1.3-9.61-2.4-14.35-3.71-9.06-2.54-18.33-4.8-27.46-6.86-5.28-1.17-12.7-1.58-16.47-6-5.56-6.52-9.68-17.92-11.88-26-1.09-3.77-4.94-17.43-.06-20.59,2.4-1.51,8.44,1.16,10,0s.82-4.67.82-6.39c0-11.39,7.62-17.71,17.16-22.72,8-4.18,16.82-6.66,25.33-9.47l.62-.21.14-15.58,12.9-11.53a58.58,58.58,0,0,1-.48-6.25C231.08,93,218.79,93.8,209.87,90a112.64,112.64,0,0,0-65.35,88.82c5.7,11.53,12.08,22.72,18.06,34.19,3.29,6.38,11.25,18.19,9.61,25.88-.9,3.91-6.53,5.69-6.25,10,.34,4.12,7.14,8,9.95,10,5,3.84,9.75,8,14.49,12.29,6.17,5.56,9.06,12.08,10.5,19.35A110.29,110.29,0,0,0,229,301.79c6.59-6.86,13-13.59,20.94-19.08,1.23-.82,2.47-1.72,3.71-2.61H234.86Z"/><polygon class="cls-2" points="110.68 325 147.61 325 147.61 336.25 123.45 336.25 123.45 344.08 145.41 344.08 145.41 354.72 123.45 354.72 123.45 371.26 110.68 371.26 110.68 325"/><path class="cls-2" d="M152.21,348.26v-.06c0-13.32,10.71-24.1,25-24.1s24.91,10.64,24.91,24v.2c0,13.32-10.77,24.1-25,24.1s-24.92-10.85-24.92-24.17m36.79,0v-.06c0-6.73-4.8-12.57-11.87-12.57s-11.74,5.7-11.74,12.36v.21c0,6.72,4.81,12.56,11.81,12.56S189,355,189,348.26"/><path class="cls-2" d="M209.12,325h22c7.07,0,12,1.86,15,5a14.48,14.48,0,0,1,4.11,10.77V341a14.62,14.62,0,0,1-9.47,14.21l11,16.13H236.92l-9.34-14.07H222v14.07H209.25V325.06h-.13Zm21.34,22.18c4.4,0,6.87-2.13,6.87-5.5v-.06c0-3.64-2.68-5.5-7-5.5h-8.45v11.13h8.52v-.07Z"/><polygon class="cls-2" points="280.78 336.25 266.85 336.25 266.85 325 307.41 325 307.41 336.25 293.55 336.25 293.55 371.26 280.78 371.26 280.78 336.25"/><polygon class="cls-2" points="313.45 325 326.22 325 326.22 342.29 342.7 342.29 342.7 325 355.6 325 355.6 371.26 342.7 371.26 342.7 353.76 326.22 353.76 326.22 371.26 313.45 371.26 313.45 325"/><polygon class="cls-2" points="364.11 325 401.32 325 401.32 335.91 376.81 335.91 376.81 342.91 398.99 342.91 398.99 353 376.81 353 376.81 360.35 401.66 360.35 401.66 371.26 364.11 371.26 364.11 325"/><path class="cls-1" d="M110.34,380.53h21.28c12.56,0,20.59,6.45,20.59,17.43v.21c0,11.74-9.06,17.91-21.28,17.91h-6.79v14.15h-13.8Zm20.18,24.71c4.94,0,7.89-2.54,7.89-6.45v-.21c0-4.32-2.95-6.52-8-6.52H124v13h6.52Z"/><polygon class="cls-1" points="158.04 380.53 171.71 380.53 171.71 418.08 195.8 418.08 195.8 430.16 158.04 430.16 158.04 380.53"/><path class="cls-1" d="M218.8,380.12H232l21.15,50H238.43l-3.57-8.86H215.71l-3.57,8.86H197.65Zm12.08,30.47-5.56-14.14-5.63,14.14Z"/><polygon class="cls-1" points="257.99 380.53 270.83 380.53 291.21 406.75 291.21 380.53 304.81 380.53 304.81 430.16 292.86 430.16 271.65 402.9 271.65 430.16 257.99 430.16 257.99 380.53"/><polygon class="cls-1" points="313.59 380.53 353.54 380.53 353.54 392.2 327.32 392.2 327.32 399.75 351.14 399.75 351.14 410.59 327.32 410.59 327.32 418.49 353.89 418.49 353.89 430.16 313.59 430.16 313.59 380.53"/><polygon class="cls-1" points="373.04 392.61 358.21 392.61 358.21 380.53 401.66 380.53 401.66 392.61 386.83 392.61 386.83 430.16 373.04 430.16 373.04 392.61"/><path class="cls-1" d="M389.86,425.76h0a4.32,4.32,0,1,1,8.64-.07h0a4.32,4.32,0,1,1-8.64.07m8,0h0a3.51,3.51,0,0,0-3.57-3.63,3.6,3.6,0,0,0-3.57,3.63h0a3.57,3.57,0,1,0,7.14,0m-5.36-2.19h2.06c1.1,0,1.79.48,1.79,1.44a1.37,1.37,0,0,1-.89,1.37l1.09,1.51h-1.44l-.89-1.23h-.55v1.23h-1.17v-4.32Zm2,2.06c.42,0,.62-.21.62-.55a.56.56,0,0,0-.62-.55h-.82v1.1Z"/><rect class="cls-3" y="-0.85" width="512" height="512"/></svg>