<svg id="Layer_1" data-name="Layer 1" xmlns="http://www.w3.org/2000/svg" viewBox="0 0 512 512"><defs><style>.cls-1{fill:#2a3d7c;}.cls-2{fill:none;}</style></defs><path class="cls-1" d="M248.56,325.88c.37,2.83.73,5.52,1.1,8.32-6.63,1.6-13.16.47-19.74,1v7.86h24v8.68H196.45v-8.54H220.2v-8.13h-6.83c-3.34,0-6.68,0-10,0-1.09,0-1.63-.2-1.63-1.46q.08-10.11,0-20.23c0-1.47.79-1.43,1.83-1.43h33.3c2.35,0,2.35,0,2.36-2.36a7.79,7.79,0,0,1,0-1.08c.24-1.68-.4-2.24-2.16-2.23-11,.08-22.08,0-33.12.08-1.7,0-2.35-.44-2.23-2.2.15-2.07,0-4.15,0-6.37H248.2c0,.57.13,1.14.13,1.72,0,6.33-.05,12.65,0,19,0,1.64-.55,2-2.06,2-11-.06-22.08,0-33.12-.07-1.72,0-2.3.48-2.25,2.22.15,4.59-.44,3.91,3.91,3.9,9.61,0,19.22-.11,28.82-.22C245.21,326.29,246.74,326.05,248.56,325.88Z"/><path class="cls-1" d="M263.36,307.83v-8.61h31.45v8.61c-1.14,0-2.26.06-3.37,0s-1.45.4-1.45,1.46q0,13.86,0,27.73c0,1.2.45,1.62,1.59,1.47,1.58-.2,3.16-.37,5-.59.4,2.49.86,5,1.17,7.59,0,.29-.73.9-1.2,1a31.7,31.7,0,0,1-5.46.74c-8.77.08-17.54,0-26.3.08-1.4,0-1.92-.36-1.83-1.81.12-1.84.07-3.69,0-5.54,0-1.07.33-1.44,1.44-1.46,3.48-.06,3.48-.1,3.48-3.67q0-12.26,0-24.51c0-2.45,0-2.45-2.4-2.46Zm13.43,30.67a19.83,19.83,0,0,1,2.57,0c1.69.22,2.23-.38,2.21-2.14-.09-8.22,0-16.44,0-24.66,0-4.26,0-4.26-4.32-3.83a1.46,1.46,0,0,0-.42.2Z"/><path class="cls-1" d="M334.86,321.34c.31-6.13,1.3-11.94,5.05-16.93a15,15,0,0,1,10.68-6.09A17.52,17.52,0,0,1,361.13,300c4.33,2.3,6.85,6.09,8.24,10.58a36,36,0,0,1,0,21.46c-1.79,5.86-5.34,10.41-11.55,11.83-10.09,2.31-18.46-1.84-21.44-12.75A86.54,86.54,0,0,1,334.86,321.34Zm9.47,0c-.06,3.68.35,7.26,2.2,10.53,1.44,2.55,3.52,4.13,6.61,4.11a6.8,6.8,0,0,0,6.5-4.24,24.58,24.58,0,0,0,.16-20.4,7,7,0,0,0-6.74-4.5c-3.14,0-5.37,1.69-6.79,4.45A20.74,20.74,0,0,0,344.33,321.36Z"/><path class="cls-1" d="M151.5,345.69a48.44,48.44,0,0,1-9.92-14.45A46.43,46.43,0,0,1,131,346.35l-7.35-5.83c9.58-8.8,13.35-19.74,12.79-32.62H125.84v-8.72c.63,0,1.21-.1,1.78-.1,9.07,0,18.14,0,27.2,0,1.53,0,2.19.32,2.06,2a39.88,39.88,0,0,0,0,5c.06,1.33-.3,1.91-1.79,1.85-2.79-.13-5.6,0-8.71,0-.24,12.24,2.18,23.28,12.17,31.71Z"/><path class="cls-1" d="M310.58,354.06c-2.76,0-5.44.05-8.1-.07-.37,0-1-.91-1-1.42-.11-2.26-.05-4.53-.05-6.8,0-6.32,0-12.64,0-19,0-1.64-.51-2.25-2.15-2.11s-3.08,0-4.84,0c0-2.68,0-5.16.06-7.64,0-.34.71-.88,1.14-.92a23.44,23.44,0,0,1,3.93,0c1.39.08,1.87-.45,1.85-1.85-.06-5.43,0-10.85,0-16.28,0-2.45,0-2.45,2.43-2.45h6.73Z"/><path class="cls-1" d="M171.64,354h-9c0-.77-.11-1.47-.11-2.16,0-8.29,0-16.59,0-24.88,0-1.71-.47-2.41-2.22-2.22-1.12.11-2.27,0-3.4,0s-1.47-.42-1.44-1.47c.05-1.85.07-3.7,0-5.55-.06-1.29.51-1.69,1.7-1.62s2.27-.06,3.4,0c1.47.11,2-.46,2-1.94-.07-5.55,0-11.1-.06-16.65,0-1.55.37-2.12,2-2,2.31.14,4.63,0,7.11,0Z"/><path class="cls-1" d="M379,354.31v-59h9.24v59Z"/><path class="cls-1" d="M323.45,354.34h-9.14c0-.72-.11-1.36-.11-2,0-18.33,0-36.65,0-55,0-1.7.4-2.34,2.18-2.22,2.31.15,4.64,0,7.11,0Z"/><path class="cls-1" d="M184.51,354.41c-2.76,0-5.44,0-8.11,0-.33,0-.76-.57-.92-1a4.17,4.17,0,0,1,0-1.42V297.55c0-2.35,0-2.35,2.32-2.36h6.76Z"/><path class="cls-1" d="M454.72,191.8c-1.84-.27-2.22.8-2.61,2.13-1.48,5-3.07,10-4.74,15.37-1.38-4.42-2.65-8.47-3.9-12.53-1.5-4.91-1.49-4.91-6.61-4.91h-5.25c.31,1,.48,1.77.74,2.46,2.62,7.08,5.26,14.15,7.87,21.23a33.4,33.4,0,0,1,1,3.23,3.08,3.08,0,0,1-3,4.17c-1.23.09-2.94-.26-3.55.4s-.08,2.33-.05,3.56c.14,5.5-.5,4.47,4.77,4.52a27,27,0,0,0,3.92-.17c4.28-.61,6.62-3.4,8-7.25q3.38-9.39,6.8-18.77c.1-.27.24-.53.37-.84,4.45,17.41-2.7,48.26-32.87,61a55.32,55.32,0,1,1,29.11-73.6ZM366,221.26h10.16V208.1c3.09,0,6,.13,8.9,0,4.55-.24,8.85-1.24,11.23-5.69a17.11,17.11,0,0,0,1.38-11.46c-.86-4.73-3.71-7.6-8.28-8.79a20,20,0,0,0-4.74-.69c-5.67-.08-11.34,0-17,0-.52,0-1,.07-1.64.12Zm63.82.12a38.3,38.3,0,0,1-.67-4.51c-.1-5.13-.07-10.26-.12-15.39s-2.21-8.48-6.73-9.46a39.34,39.34,0,0,0-9.38-.77,12.85,12.85,0,0,0-8.71,3.16,8,8,0,0,0-2.75,6.92c2.78,0,5.4,0,8,0a1.53,1.53,0,0,0,1.17-.77c.95-2.8,4.13-3.29,6.62-2.43,1.28.44,2.23,1.16,2.15,2.68s-1.12,2-2.4,2.17c-2.87.46-5.76.84-8.6,1.44-2.64.55-5.23,1.36-6.85,3.78a8.86,8.86,0,0,0-.44,9.49c1.59,3.09,4.47,4.24,7.83,4.47a14.54,14.54,0,0,0,10.19-2.73c.72.76,1.27,1.87,1.88,1.9C423.88,221.48,426.8,221.38,429.78,221.38Z"/><path class="cls-1" d="M180.54,224.11a20.07,20.07,0,0,0,5.87,12.32c3.93,3.81,8.83,5.55,14.09,6.42,10,1.64,19.41-.37,28.41-4.79.52-.26,1.06-.5,1.71-.8l11,17.76a10.88,10.88,0,0,1-1.15.85c-8.24,4.5-16.67,8.49-26.17,9.54-11.77,1.31-23.34.76-34.31-4.24-12.22-5.57-20.57-14.79-24.6-27.57-5.16-16.39-3.83-32.4,4.34-47.57,6.47-12,16.74-19.2,30-21.92,9.35-1.92,18.75-2.07,27.86,1.15,13.49,4.77,21.68,14.69,26,28,3.14,9.57,3.52,19.39,2.18,29.32-.19,1.38-.92,1.55-2.07,1.55q-15.59,0-31.15,0H180.54Zm-.4-20.92a12.29,12.29,0,0,0,1.59.25c12.16,0,24.33,0,36.49,0,1.24,0,1.51-.51,1.42-1.62a18.89,18.89,0,0,0-6.55-13.26c-8.78-7.6-25.81-6.61-31.26,8.39C181.11,198.94,180.72,201,180.14,203.19Z"/><path class="cls-1" d="M99.57,189H97.15c-13.42,0-26.85,0-40.28,0-1.59,0-2.16-.37-2.14-2.06.1-6.68.07-13.37,0-20.05,0-1.38.36-1.85,1.8-1.84q39.21.06,78.43,0c.47,0,.94.06,1.6.1,0,.61.08,1.18.09,1.76,0,4.95,0,9.9,0,14.86a3.93,3.93,0,0,1-.68,2.29q-19.09,23.79-38.31,47.51c-1.8,2.22-3.9,4.19-5.86,6.29l-1.49,1.64c1.09.07,1.76.15,2.42.15,14.44,0,28.88,0,43.33,0,1.69,0,2.27.42,2.25,2.18-.1,6.69-.08,13.37,0,20,0,1.57-.47,2.05-2,2.05q-41-.06-82,0c-1.44,0-2-.36-1.93-1.89.09-4.72,0-9.43.06-14.15A3.64,3.64,0,0,1,53,245.8q20-24.6,40-49.11c1.89-2.31,4-4.41,6-6.61A5.31,5.31,0,0,0,99.57,189Z"/><path class="cls-1" d="M297.94,165.2v9.22a12.35,12.35,0,0,0,1-.91c4.4-5.47,10.35-7.79,17.1-8,8.4-.22,16.82,0,25.23,0,.95,0,1.76,0,1.75,1.35,0,8.59,0,17.19,0,25.78a6.31,6.31,0,0,1-.17.93h-1.9c-7.75,0-15.52-.09-23.27.07-9.34.2-16.76,6.08-18.87,14.92a35.45,35.45,0,0,0-.86,8q-.1,22.56,0,45.12c0,1.82-.5,2.32-2.3,2.3q-13-.13-26,0c-1.74,0-2.2-.51-2.2-2.22q.07-47.27,0-94.54c0-1.56.33-2.16,2-2.15,8.78.09,17.55,0,26.32,0C296.44,165.1,297,165.15,297.94,165.2Z"/><path class="cls-1" d="M376.11,190.25c2.78,0,5.33-.14,7.86,0,2.37.18,3.74,2,3.75,4.61s-1,4.14-3.57,4.43-5.18.33-8,.49v-9.57Z"/><path class="cls-1" d="M419.67,207.94a36.11,36.11,0,0,1-1.66,5.75c-1,2-5.21,2.56-7,1.14a2.77,2.77,0,0,1,1-4.84C414.3,209.17,416.68,208.72,419.67,207.94Z"/><rect class="cls-2" y="0.69" width="512" height="512"/></svg>