<?xml version="1.0" encoding="utf-8"?>
<!-- Generator: Adobe Illustrator 26.1.0, SVG Export Plug-In . SVG Version: 6.00 Build 0)  -->
<svg version="1.1" id="Layer_1" xmlns="http://www.w3.org/2000/svg" xmlns:xlink="http://www.w3.org/1999/xlink" x="0px" y="0px"
	 viewBox="0 0 750 750" style="enable-background:new 0 0 750 750;" xml:space="preserve">
<style type="text/css">
	.st0{clip-path:url(#SVGID_00000039841249495455995150000009329857356989848977_);}
</style>
<g>
	<defs>
		<rect id="SVGID_1_" width="750" height="750"/>
	</defs>
	<clipPath id="SVGID_00000111151538065722280720000001664435491690684549_">
		<use xlink:href="#SVGID_1_"  style="overflow:visible;"/>
	</clipPath>
	<path style="clip-path:url(#SVGID_00000111151538065722280720000001664435491690684549_);" d="M430.7,337.2v-0.7
		c22.2-9.2,35.7-28.8,35.7-54.8c0-24-12.5-41.5-28.3-51.1c-14.5-8.9-42.4-8.9-63.7-8.9h-87.2v244.6h116.2
		c47.8,0,73.1-34.3,73.1-70.2C476.5,366,460.3,343.4,430.7,337.2 M319.1,249.2h64c27.6,0,51.2,4.8,51.2,38.7
		c0,25.7-14.8,39.1-51.2,39.1h-64V249.2z M399.3,439h-80.2v-84.6h73.1c27,0,52.2,8.9,52.2,40.8C444.5,421.8,426.9,439,399.3,439
		 M375.3,129.7c-116.4,0-210.7,96-210.7,214.3c0,118.4,94.3,214.3,210.7,214.3c116.4,0,210.7-96,210.7-214.3
		C586.1,225.7,491.7,129.7,375.3,129.7 M375.3,530.3c-101,0-182.9-83.3-182.9-186.1c0-102.8,81.9-186.1,182.9-186.1
		c101.1,0,182.9,83.3,182.9,186.1C558.3,446.9,476.4,530.3,375.3,530.3 M165.1,631.7h420.6v-28.1H165.1V631.7z M577.6,561.7
		c-1.6-0.7-3.2-1-4.9-1c-1.7,0-3.3,0.3-4.9,1c-1.5,0.7-2.9,1.5-4,2.7c-1.1,1.2-2.1,2.5-2.7,4c-0.7,1.6-1,3.3-1,5.1
		c0,1.8,0.3,3.5,1,5.1c0.7,1.6,1.6,2.9,2.7,4.1c1.1,1.2,2.5,2,4,2.7c1.5,0.6,3.2,0.9,4.9,0.9c1.8,0,3.4-0.3,4.9-0.9
		c1.5-0.7,2.8-1.5,3.9-2.7c1.1-1.2,2.1-2.5,2.7-4.1c0.7-1.5,1-3.2,1-5.1c0-1.8-0.3-3.5-1-5.1c-0.6-1.5-1.6-2.8-2.7-4
		C580.4,563.2,579.1,562.4,577.6,561.7 M583,573.5c0,1.5-0.3,3-0.8,4.3c-0.5,1.4-1.3,2.5-2.2,3.5c-1,1-2,1.7-3.3,2.3
		c-1.2,0.5-2.6,0.8-4.1,0.8c-1.4,0-2.8-0.3-4.1-0.8c-1.3-0.6-2.4-1.3-3.3-2.3c-1-1-1.7-2.1-2.2-3.5c-0.5-1.3-0.8-2.8-0.8-4.3
		c0-1.6,0.3-3,0.8-4.3c0.5-1.3,1.2-2.5,2.2-3.5c0.9-1,2-1.7,3.3-2.3c1.2-0.5,2.6-0.8,4.1-0.8c1.5,0,2.8,0.3,4.1,0.8
		c1.3,0.6,2.3,1.3,3.3,2.3c0.9,1,1.6,2.1,2.2,3.5C582.7,570.5,583,571.9,583,573.5 M577.5,573.3c0.7-0.7,1.1-1.6,1.1-3
		c0-1.4-0.4-2.5-1.3-3.2c-0.8-0.7-2.1-1-3.9-1h-5.7v14.9h2.3v-6.4h2.4l4,6.4h2.4l-4.2-6.6C575.9,574.2,576.8,573.9,577.5,573.3
		 M572.5,572.7h-2.4v-4.8h3c0.4,0,0.8,0,1.2,0.1c0.4,0.1,0.7,0.2,1,0.4c0.3,0.1,0.6,0.4,0.7,0.7c0.2,0.3,0.3,0.7,0.3,1.2
		c0,0.6-0.1,1-0.3,1.4c-0.2,0.3-0.5,0.6-0.9,0.7c-0.3,0.2-0.8,0.3-1.2,0.3C573.5,572.6,573,572.7,572.5,572.7 M173.9,82.3
		c3.2,3.6,7.1,6.4,11.8,8.5c4.6,2.1,9.9,3.1,15.7,3.1c4.7,0,9-0.7,12.9-2.2c3.9-1.4,7.3-3.5,10.2-6.3c2.9-2.7,5.3-6.1,7-10
		c1.8-3.9,2.9-8.3,3.3-13.1h-16.2c-0.6,5.2-2.4,9.4-5.3,12.6c-2.9,3.2-6.9,4.8-12,4.8c-3.8,0-7-0.7-9.6-2.2
		c-2.6-1.5-4.8-3.5-6.4-5.9c-1.6-2.5-2.8-5.2-3.6-8.3c-0.7-3.1-1.1-6.2-1.1-9.5c0-3.4,0.4-6.7,1.1-9.9c0.7-3.2,1.9-6,3.6-8.5
		c1.6-2.5,3.8-4.5,6.4-6c2.6-1.5,5.8-2.2,9.6-2.2c2.1,0,4,0.3,5.9,1c1.9,0.7,3.6,1.6,5.1,2.9c1.5,1.2,2.7,2.7,3.7,4.3
		c1,1.6,1.6,3.4,1.9,5.4h16.2c-0.5-4.5-1.7-8.4-3.6-11.9c-1.9-3.5-4.3-6.4-7.3-8.7c-2.9-2.3-6.3-4.1-10-5.4
		c-3.7-1.2-7.7-1.8-11.9-1.8c-5.8,0-11.1,1-15.7,3.1c-4.7,2.1-8.6,5-11.8,8.7c-3.2,3.7-5.6,8-7.4,12.9c-1.7,5-2.6,10.3-2.6,16.1
		c0,5.6,0.8,10.9,2.6,15.8C168.2,74.5,170.7,78.7,173.9,82.3 M245.3,85.5c2.4,2.6,5.4,4.6,8.8,6c3.5,1.4,7.4,2.1,11.7,2.1
		c6.2,0,11.6-1.4,16-4.3c4.4-2.9,7.7-7.7,9.8-14.4h-13.3c-0.5,1.7-1.8,3.4-4,4.9c-2.2,1.6-4.8,2.3-7.9,2.3c-4.3,0-7.5-1.1-9.8-3.4
		c-2.3-2.2-3.5-5.9-3.7-10.8h39.7c0.3-4.3-0.1-8.5-1.1-12.5c-1-4-2.6-7.5-4.8-10.6c-2.2-3.1-5.1-5.6-8.6-7.4
		c-3.5-1.8-7.6-2.8-12.2-2.8c-4.2,0-8,0.8-11.5,2.3c-3.4,1.5-6.4,3.6-8.9,6.2c-2.5,2.6-4.4,5.8-5.8,9.4c-1.3,3.6-2,7.5-2,11.7
		c0,4.3,0.7,8.3,2,11.9C241,79.8,242.9,82.9,245.3,85.5 M253.5,54.5c0.4-1.4,1.1-2.7,2-3.9c1-1.2,2.2-2.3,3.8-3.1
		c1.6-0.8,3.6-1.2,6-1.2c3.7,0,6.4,1,8.3,3c1.8,2,3.1,5,3.8,8.9h-24.6C252.9,57.1,253.2,55.9,253.5,54.5 M314.5,67
		c0-2.5,0.2-4.9,0.7-7c0.5-2.2,1.3-4.1,2.5-5.7c1.2-1.6,2.7-2.9,4.6-3.8c1.9-0.9,4.3-1.4,7-1.4c0.9,0,1.9,0.1,2.9,0.2
		c1,0.1,1.8,0.2,2.6,0.4V35.2c-1.2-0.4-2.3-0.5-3.3-0.5c-1.9,0-3.8,0.3-5.5,0.9c-1.8,0.6-3.4,1.4-5,2.4c-1.6,1-2.9,2.3-4.2,3.8
		c-1.2,1.5-2.2,3.1-2.9,4.8h-0.2V36.2h-14.4v56h15.1L314.5,67L314.5,67z M349.1,79.5c0,2.8,0.5,5.1,1.4,6.8c0.9,1.7,2.2,3.1,3.8,4
		c1.6,0.9,3.4,1.6,5.5,1.9c2.1,0.3,4.3,0.5,6.7,0.5c1.5,0,3,0,4.6-0.1c1.6-0.1,3-0.2,4.3-0.4V80.3c-0.7,0.1-1.5,0.3-2.2,0.3
		c-0.8,0.1-1.6,0.1-2.4,0.1c-2.6,0-4.3-0.4-5.1-1.3c-0.9-0.9-1.3-2.6-1.3-5.2V46.5h11.1V36.2h-11.1V19.4h-15.1v16.8H340v10.3h9.2
		V79.5z M399.3,36.2h-15.1v56h15.1V36.2z M399.3,14.8h-15.1v12.7h15.1V14.8z M414.3,92.2h15.1V46.5h10.4V36.2h-10.4v-3.4
		c0-2.3,0.4-4,1.3-4.9c0.9-1,2.4-1.5,4.4-1.5c1.9,0,3.8,0.1,5.5,0.3V15.3c-1.3-0.1-2.6-0.2-3.9-0.3c-1.4-0.1-2.7-0.2-4.1-0.2
		c-6.2,0-10.8,1.6-13.8,4.8c-3.1,3.2-4.6,7.3-4.6,12.2v4.3h-9.1v10.3h9.1V92.2z M465.3,14.8h-15.1v12.7h15.1V14.8z M465.3,36.2
		h-15.1v56h15.1V36.2z M477.8,85.5c2.4,2.6,5.4,4.6,8.8,6c3.5,1.4,7.4,2.1,11.7,2.1c6.2,0,11.6-1.4,16-4.3c4.4-2.9,7.7-7.7,9.8-14.4
		h-13.3c-0.5,1.7-1.8,3.4-4,4.9c-2.2,1.6-4.8,2.3-7.9,2.3c-4.3,0-7.5-1.1-9.8-3.4c-2.3-2.2-3.5-5.9-3.7-10.8h39.7
		c0.3-4.3-0.1-8.5-1.1-12.5c-1-4-2.6-7.5-4.8-10.6c-2.2-3.1-5.1-5.6-8.6-7.4c-3.5-1.8-7.6-2.8-12.3-2.8c-4.2,0-8,0.8-11.4,2.3
		c-3.4,1.5-6.4,3.6-8.9,6.2c-2.5,2.6-4.4,5.8-5.8,9.4c-1.3,3.6-2,7.5-2,11.7c0,4.3,0.7,8.3,2,11.9C473.6,79.8,475.4,82.9,477.8,85.5
		 M486.1,54.5c0.4-1.4,1.1-2.7,2-3.9c1-1.2,2.2-2.3,3.8-3.1c1.6-0.8,3.6-1.2,6-1.2c3.7,0,6.4,1,8.3,3c1.8,2,3.1,5,3.8,8.9h-24.6
		C485.5,57.1,485.7,55.9,486.1,54.5 M535.7,84.6c2,2.8,4.6,5,7.7,6.6c3.1,1.6,6.7,2.4,10.9,2.4c3.6,0,6.9-0.7,9.7-2
		c2.9-1.3,5.2-3.5,7-6.6h0.2v7.2h14.4V14.8h-15.1V43h-0.2c-1.7-2.7-4-4.8-7-6.2c-2.9-1.4-6-2.1-9.3-2.1c-4,0-7.6,0.8-10.7,2.4
		c-3.1,1.6-5.6,3.8-7.6,6.4c-2,2.7-3.6,5.8-4.6,9.3c-1,3.5-1.5,7.1-1.5,10.9c0,3.9,0.5,7.7,1.5,11.3
		C532.2,78.6,533.7,81.8,535.7,84.6 M545.4,57.5c0.5-2.1,1.2-4,2.2-5.7c1-1.7,2.4-3,4.1-4c1.7-1,3.8-1.5,6.3-1.5
		c2.5,0,4.5,0.5,6.2,1.5c1.6,1,3,2.3,4,4c1,1.6,1.8,3.5,2.2,5.6c0.4,2.1,0.6,4.4,0.6,6.7c0,2.3-0.2,4.5-0.6,6.7
		c-0.4,2.2-1.1,4.1-2.1,5.8c-1,1.7-2.3,3.1-4,4.1c-1.7,1-3.7,1.5-6.2,1.5c-2.3,0-4.4-0.5-6-1.6c-1.7-1-3.1-2.4-4.2-4.1
		c-1.1-1.7-1.9-3.6-2.4-5.8c-0.5-2.2-0.7-4.3-0.7-6.5C544.7,61.8,545,59.6,545.4,57.5 M190.3,714.3c-10.6,0-14.6-9.2-14.6-18.2
		c0-9.5,4-18.7,14.6-18.7c5.9,0,11,4.1,11.7,9.5h11.4c-1.4-12.6-11.3-19.6-23.1-19.6c-16.6,0-26.3,12.6-26.3,28.8
		c0,15.7,9.7,28.3,26.3,28.3c13.1,0,22.4-8.7,23.6-22.3h-11.4C201.5,709.3,197.5,714.3,190.3,714.3 M238.4,682.6
		c-12.2,0-20,8.2-20,20.8c0,12.5,7.9,20.8,20,20.8c12.2,0,20.1-8.2,20.1-20.8C258.5,690.8,250.6,682.6,238.4,682.6 M238.4,716
		c-7.2,0-9.4-6.3-9.4-12.6c0-6.3,2.2-12.7,9.4-12.7c7.3,0,9.4,6.3,9.4,12.7C247.9,709.7,245.7,716,238.4,716 M275.3,690.9h-0.2v-7.3
		h-10.1V723h10.6v-17.8c0-6.9,2.7-12.7,10.5-12.7c1.3,0,2.8,0.1,3.8,0.4v-10.1c-0.7-0.2-1.6-0.4-2.3-0.4
		C282.5,682.5,277.3,686,275.3,690.9 M316,682.6c-4.8,0-9,1.9-11.5,6.1h-0.1v-5h-10.1V737h10.6v-18.8h0.2c2.5,3.9,7,6,11.6,6
		c11.3,0,17-9.8,17-20.4C333.7,692.6,328.2,682.6,316,682.6 M313.8,716c-6.9,0-9.3-6.1-9.3-12.5c0-6.4,2.2-12.7,9.2-12.7
		c6.8,0,9.3,6.5,9.3,12.7C323,709.9,320.8,716,313.8,716 M357,682.6c-12.1,0-20,8.2-20,20.8c0,12.5,7.9,20.8,20,20.8
		c12.2,0,20.1-8.2,20.1-20.8C377.1,690.8,369.3,682.6,357,682.6 M357,716c-7.2,0-9.4-6.3-9.4-12.6c0-6.3,2.2-12.7,9.4-12.7
		c7.3,0,9.5,6.3,9.5,12.7C366.5,709.7,364.3,716,357,716 M394,690.9h-0.2v-7.3h-10.1V723h10.6v-17.8c0-6.9,2.7-12.7,10.5-12.7
		c1.3,0,2.8,0.1,3.8,0.4v-10.1c-0.7-0.2-1.6-0.4-2.3-0.4C401.2,682.5,395.9,686,394,690.9 M447.1,693.8c0-9.5-9.3-11.2-17-11.2
		c-8.7,0-17.6,3-18.2,13.2h10.7c0.4-4.3,3-6,7.1-6c3.7,0,6.9,0.7,6.9,5.3c0,4.4-6.1,4.2-12.6,5.2c-6.6,0.9-13.2,3.1-13.2,12
		c0,8.1,5.8,11.8,13.2,11.8c4.7,0,9.7-1.3,13-4.9c0.1,1.3,0.4,2.6,0.8,3.8h10.8c-1-1.6-1.4-5.2-1.4-8.8L447.1,693.8L447.1,693.8z
		 M436.4,707.9c0,2.4-0.3,9.1-8.6,9.1c-3.5,0-6.5-1-6.5-5c0-4,3-5.1,6.3-5.8c3.3-0.6,7-0.7,8.9-2.3V707.9z M468.6,671.8H458v11.8
		h-6.5v7.2h6.5v23.3c0,7.9,5.7,9.4,12.2,9.4c2.1,0,4.4-0.1,6.2-0.4v-8.5c-1.1,0.2-2.2,0.3-3.3,0.3c-3.6,0-4.5-0.9-4.5-4.6v-19.5h7.8
		v-7.2h-7.8L468.6,671.8L468.6,671.8z M484.4,677.6h10.6v-8.9h-10.6V677.6z M484.4,723.1h10.6v-39.4h-10.6V723.1z M522.2,682.6
		c-12.1,0-20,8.2-20,20.8c0,12.5,7.9,20.8,20,20.8c12.2,0,20.1-8.2,20.1-20.8C542.4,690.8,534.5,682.6,522.2,682.6 M522.2,716
		c-7.2,0-9.4-6.3-9.4-12.6c0-6.3,2.2-12.7,9.4-12.7c7.3,0,9.5,6.3,9.5,12.7C531.7,709.7,529.5,716,522.2,716 M571.5,682.6
		c-4.5,0-9.2,2.1-11.9,6.6h-0.2v-5.5h-10.1v39.4h10.6v-20.7c0-8,2.5-11.3,8.3-11.3c4.9,0,6.8,3.2,6.8,9.7v22.3h10.6v-24.3
		C585.6,689.1,582.8,682.6,571.5,682.6"/>
</g>
</svg>
