<svg id="Layer_1" data-name="Layer 1" xmlns="http://www.w3.org/2000/svg" viewBox="0 0 512 512"><defs><style>.cls-1{fill:#8cc540;}.cls-1,.cls-2,.cls-3,.cls-4,.cls-5{fill-rule:evenodd;}.cls-2{fill:#ef413e;}.cls-3{fill:#fff;}.cls-4{fill:#f9a61c;}.cls-5{fill:#754d29;}.cls-6{fill:none;}</style></defs><path class="cls-1" d="M200.28,160.12a42.82,42.82,0,1,1,42.81,42.81A42.81,42.81,0,0,1,200.28,160.12Z"/><path class="cls-2" d="M257.88,234.8a34.65,34.65,0,1,1,34.65,34.66A34.66,34.66,0,0,1,257.88,234.8Z"/><path class="cls-3" d="M270.41,234.54h-.28v.24a22.41,22.41,0,0,0,22.41,22.43l.26,0v-.25a22.36,22.36,0,0,0-22.39-22.4Z"/><path class="cls-3" d="M287.82,212.91a22.39,22.39,0,0,0-17.17,17.17,26.86,26.86,0,0,1,26.63,26.61,22.3,22.3,0,0,0,17.14-17.16,26.8,26.8,0,0,1-26.6-26.62Z"/><path class="cls-3" d="M292.29,212.41c0,.09,0,.18,0,.27a22.36,22.36,0,0,0,22.39,22.38h.26c0-.08,0-.16,0-.25a22.41,22.41,0,0,0-22.43-22.42Z"/><path class="cls-4" d="M164.53,227a28.28,28.28,0,1,1,28.28,28.27A28.28,28.28,0,0,1,164.53,227Z"/><path class="cls-3" d="M185.48,210a5.3,5.3,0,0,0-7,2.64l-6.83,15a5.33,5.33,0,0,0,2.64,7.05l1.51.67L187,210.67Z"/><path class="cls-3" d="M210.46,221.32l-1.5-.68-11.22,24.72,1.51.69a5.31,5.31,0,0,0,7-2.64l6.84-15A5.34,5.34,0,0,0,210.46,221.32Z"/><path class="cls-3" d="M201.52,217.26l-3.34-1.51v20.07l7.55-16.64-1.25-.57a.13.13,0,0,0,0-.1A7.13,7.13,0,0,0,201,209a6.94,6.94,0,0,0-2.79-.65v3.27a4,4,0,0,1,1.45.34,3.91,3.91,0,0,1,2,5.17A.47.47,0,0,0,201.52,217.26Zm-3.34-1.51-3.75-1.7a.45.45,0,0,1,0-.11,3.93,3.93,0,0,1,3.72-2.28v-3.27a7.17,7.17,0,0,0-6.68,4.21s0,.06,0,.09l-1.24-.56L179,236.86l15.52,7,3.67-8.07Z"/><path class="cls-2" d="M153.92,171a18,18,0,1,1,18,18A18,18,0,0,1,153.92,171Z"/><path class="cls-4" d="M320.31,187.3a20.94,20.94,0,1,1,20.94,20.95A20.93,20.93,0,0,1,320.31,187.3Z"/><path class="cls-3" d="M255.85,176.2l17-26.64a1.89,1.89,0,0,0-.52-2.57c-13.08-8.53-25.33-7.23-29.8-6.33a5,5,0,0,0-2.76,2l-10.57,16.59c-.55.86-1.25,1.61-2,1.12a14,14,0,0,0-7.22-2.05c-5.94-.13-10.81,3-10.88,6.93s4.66,7.25,10.58,7.37c4.15.09,7.77-1.41,9.61-3.68.56-.71,1.2-2,1.75-2.83l9.94-15.59a2.87,2.87,0,0,1,2.77-1.21l18.93,3.4a1.14,1.14,0,0,1,.81,1.87L254,169.35c-.53.85-1.24,1.56-2,1.07a13.88,13.88,0,0,0-7.21-2c-5.93-.12-10.79,3-10.88,6.93s4.66,7.25,10.58,7.38c4.16.08,7.79-1.43,9.61-3.69A31.83,31.83,0,0,0,255.85,176.2Z"/><path class="cls-2" d="M320.63,143.71c4,15-5,34.47-21.66,36.23a1.59,1.59,0,0,1-1.53-1c-5.22-15.43,5.41-34.1,21.74-36.23A1.41,1.41,0,0,1,320.63,143.71Z"/><path class="cls-4" d="M109.44,238.56c16.58,10.86,41.74,7.29,48.09-12.67a2.28,2.28,0,0,0-.81-2.29c-16.78-12.48-41.42-6.61-48.11,12.79A2,2,0,0,0,109.44,238.56Z"/><path class="cls-4" d="M158.27,217.8c-.14-11.28-10.87-25.7-23.58-26.8a.85.85,0,0,0-.91.79c-.65,11.58,11.11,25.41,23.63,26.79A.77.77,0,0,0,158.27,217.8Z"/><path class="cls-1" d="M352.35,260.52c1.33-9.67-6-23.41-16.78-26a.75.75,0,0,0-.88.55c-2,9.86,6.27,23.22,16.83,26A.65.65,0,0,0,352.35,260.52Z"/><path class="cls-1" d="M383.24,232.5c-13.44,12.24-36.68,12.8-45.29-4.22a2.1,2.1,0,0,1,.41-2.19c13.38-13.74,36.49-12.14,45.32,4.31A1.87,1.87,0,0,1,383.24,232.5Z"/><path class="cls-5" d="M276.5,293.67l-.66-.2v3.43c3.83-.52,4.43-2.08.66-3.23Zm-.66,61.22V341.73h95a6.36,6.36,0,0,1,4.9,2,6.61,6.61,0,0,1,1.77,4.56,6.7,6.7,0,0,1-1.77,4.67,6.33,6.33,0,0,1-4.9,2H333.29v31.69a7.56,7.56,0,0,1-2.41,6A8.55,8.55,0,0,1,325,394.7a8.65,8.65,0,0,1-5.82-2.16,7.48,7.48,0,0,1-2.48-6V354.89Zm126.4,8.24q-9.28-.36-13.37-4.61c-2.73-2.81-4.07-7.1-4.07-12.83v-23q0-9,9.27-9h27.6c1.65,0,2.47-.78,2.47-2.34V298H386.52v-13h54.21v32.21q0,9.58-9.65,9.57H404.46q-3.07,0-3.08,3.09V343c0,3.76,1.68,5.85,5.08,6.26a93.78,93.78,0,0,0,10.64.49q17.68,0,27.09-2.58c4.8-1.39,8.08-3,9.9-4.66q3.72-3.57,3.71-11.19V280.4h16.47V384.78a8,8,0,0,1-2.42,6.25,8.35,8.35,0,0,1-5.88,2.23,7.86,7.86,0,0,1-5.56-2.09,8.13,8.13,0,0,1-2.61-6.39v-33.2a37,37,0,0,1-10.63,6.89c-4,1.71-11.27,3-21.92,3.92a192.72,192.72,0,0,1-23,.74Zm-97.55-33.81q-16.32,0-16.33-16.59V280.67h16.47v29.86c0,3.85,2,5.76,5.93,5.76h21.17q14.24,0,24-2.57a10.81,10.81,0,0,1,2.23-.25,5.63,5.63,0,0,1,5.95,5.78c0,3-1.58,5-4.7,6.14q-10.77,3.94-27.73,3.93Zm-28.85-35.85c-17-4.86-26.75,4-31.78,11.58-.69-1.54-1.37-3.06-2-4.55-16.74-38.52-1.17-66.92,7.29-78.35,2.39-3.22,2-3.73-1.18-1.24-13.52,10.7-20.92,22-24.42,33.62v40.25c4.61,21.21,13.7,41.7,13.7,59,0,20.08-7.17,30.44-13.7,35.26v3.67h22.54c4,0,8.74-2.89,10.12-6.67,7.48-20.29,4-39.53-2.18-56.81-1.14-26,13.12-31.28,21.47-32.34l.16,0v-3.43Zm0,48.26v13.16h-3.19V341.73Zm-52.11,35.73V366.73a5.86,5.86,0,0,1,.83.75,6.56,6.56,0,0,1,1.78,4.55,6.73,6.73,0,0,1-1.78,4.67A5.38,5.38,0,0,1,223.73,377.46Zm0-122.93c-4,13.3-2.9,26.92,0,40.25V254.53Zm0,134.53-.19.14c-3,2.2-3.06,3.38.19,3.53v-3.67Zm0-22.33v10.73a6.61,6.61,0,0,1-4.06,1.21H186.19V342h.06a12.06,12.06,0,0,0,7.92-2.64,9.58,9.58,0,0,0,0-14.39,12.23,12.23,0,0,0-7.87-2.63h-.06v-12h.06c7.77,0,14.15,2,19.19,6.08A20.27,20.27,0,0,1,208,345.46a25,25,0,0,1-13.3,7.55v12.52h25a6.67,6.67,0,0,1,4.06,1.2Zm-37.54-59V278.57h8.49v16h17.9a6.26,6.26,0,0,1,4.88,2,6.47,6.47,0,0,1,1.79,4.54,6.66,6.66,0,0,1-1.79,4.67,6.29,6.29,0,0,1-4.88,2Zm0-29.17v29.17H154.58V294.58h23.14v-16Zm0,31.69v12a12.3,12.3,0,0,0-7.86,2.46,9.23,9.23,0,0,0-3.35,7.37,8.81,8.81,0,0,0,3.23,7.19,12.29,12.29,0,0,0,8,2.64v36.71h-34.1V365.53h26V353a24.76,24.76,0,0,1-13.61-7.43A20.31,20.31,0,0,1,167,316.34q7.53-6.06,19.24-6.08Zm-93.6,83.63V380.75h33.74a6.88,6.88,0,0,1,5.18,1.9,6.23,6.23,0,0,1,1.87,4.48,6.79,6.79,0,0,1-7,6.76Zm0-23.47V334.67h47.22a6.32,6.32,0,0,1,6.81,6.5,6.37,6.37,0,0,1-1.79,4.49,6.55,6.55,0,0,1-5,1.91H102.67v22.85Zm0-45.84V311.82h15.69c2.06,0,3.3-.46,3.71-1.36a9.29,9.29,0,0,0,.25-2.58V294.12H92.59V281.47h36.23v30q0,13.14-13.24,13.12Zm0-43.11v12.65H72.94v13.76c0,1.88.32,3,.94,3.39a5.92,5.92,0,0,0,2.9.55H92.59v12.76H69.49q-13.11,0-13.12-13.12v-30Zm0,53.2v35.75H86.21V347.57h-46v-12.9Zm0,46.08H75c-2.91,0-4.34-1.43-4.34-4.3v-18.2h-17v22.12c0,5.17,1,8.72,3,10.64s5.56,2.88,10.59,2.88h25.3Z"/><rect class="cls-6" x="1.22" width="512" height="512"/></svg>