<svg id="Layer_1" data-name="Layer 1" xmlns="http://www.w3.org/2000/svg" viewBox="0 0 512 512"><defs><style>.cls-1,.cls-3{fill:#cd2e27;}.cls-2{fill:#505050;}.cls-3{fill-rule:evenodd;}.cls-4{fill:none;}</style></defs><path class="cls-1" d="M345.94,101.05c1-12.49-7.15-23.26-7.15-23.26l-14,5a38.6,38.6,0,0,1,7.3,23.26Z"/><path class="cls-1" d="M327.71,120.06c-1,12.49,7.15,23.25,7.15,23.25l14-5A38.65,38.65,0,0,1,341.54,115Z"/><path class="cls-1" d="M327.09,101.68c-12.5-1-23.57,6.91-23.57,6.91l5,13.51S318.76,114.48,332,115Z"/><path class="cls-1" d="M346.73,119.51c12.49,1,23.56-6.91,23.56-6.91l-5-13.52s-10.22,7.62-23.49,7.07Z"/><rect class="cls-2" x="191.26" y="131.61" width="5.66" height="34.25"/><polygon class="cls-2" points="240.99 140.72 233.05 140.72 233.05 131.76 227.39 131.76 227.39 154.55 233.05 154.55 233.05 145.51 240.99 145.51 240.99 140.72"/><path class="cls-2" d="M176.64,149.44a4.48,4.48,0,1,1,4.48-4.48,4.47,4.47,0,0,1-4.48,4.48m11-14.53h-8.17v-5.34h-5.42v5.34h-8.64v4.79h3.77a9.3,9.3,0,0,0-1.65,5.26,9.12,9.12,0,1,0,18.23,0,9.3,9.3,0,0,0-1.65-5.26h3.45l.08-4.79Z"/><path class="cls-2" d="M222.44,168.69a4.48,4.48,0,1,1,4.48-4.48,4.47,4.47,0,0,1-4.48,4.48m0-13.67a9.19,9.19,0,1,0,9.12,9.19,9.14,9.14,0,0,0-9.12-9.19"/><path class="cls-2" d="M190.16,158.55c-2.91.95-12.49,1.34-12.49,1.34H164.23v-4.48h13.44s9.58-.39,12.49-1.33Z"/><path class="cls-2" d="M216.08,147.32h-8.56v-9.58h8.56Zm-13.51,4.16H221V133.57H202.57Z"/><path class="cls-2" d="M256.07,137.34h5.26v6.84h-5.26Zm15.32,6.84h-4.48v-6.84h4.48v-4.79H246v4.79h4.48v6.84H246V149h25.38Z"/><path class="cls-2" d="M263.14,167.59a4.48,4.48,0,1,1-4.48-4.48,4.43,4.43,0,0,1,4.48,4.48M241.85,156.2h14v2.67a9.17,9.17,0,1,0,11.94,8.72,9.18,9.18,0,0,0-6.28-8.72V156.2h14v-4.8H241.85v4.8Z"/><polygon class="cls-2" points="309.72 143.78 309.72 131.37 304.07 131.37 304.07 162.56 309.72 162.56 309.72 148.58 317.89 148.58 317.89 143.78 309.72 143.78"/><path class="cls-2" d="M292.21,141h8.72v-4.8h-8.1v-6h-5.65v6h-7.86V141h8.33c-.71,8.48-9.9,13.43-9.9,13.43l3.22,3.69s6.13-3.77,9-9c3.06,4.95,8.72,8.48,8.72,8.48l3.22-3.69c.08-.08-8.64-4.79-9.74-12.88"/><path class="cls-2" d="M217.73,404.68v7.15h-2.91v-7.15h-4.08V420H202.1V408.37h6.28v-3H198v15.4a2.11,2.11,0,0,0,2.12,2.12h10.61v8.95h4.08v-17.2h2.91v17.2h4.09V404.6h-4.09Z"/><path class="cls-2" d="M235.17,421.81h-4.08v7.46a2.11,2.11,0,0,0,2.12,2.12H249v-3H235.17v-6.6Z"/><path class="cls-2" d="M230.22,412.61a3.39,3.39,0,1,1,3.38,3.7,3.53,3.53,0,0,1-3.38-3.7m10.69,0a5.89,5.89,0,0,0-1.42-3.92h2.28v-3h-6.13V403h-4.08v2.75h-6.13v3h2.28a6.27,6.27,0,0,0-1.42,3.92c0,3.7,3.3,6.68,7.31,6.68s7.31-3,7.31-6.68"/><polygon class="cls-2" points="248.37 410.42 248.37 404.68 244.28 404.68 244.28 422.36 248.37 422.36 248.37 413.4 251.59 413.4 251.59 410.42 248.37 410.42"/><path class="cls-2" d="M316.32,409.63v-1.1h5.27v-2.91H306.66v2.91h5.26v1.1c0,3.69-2.43,8.41-6.05,10.92l1.89,2.28a24.74,24.74,0,0,0,6.36-6.29,26.1,26.1,0,0,0,6.37,6.29l1.88-2.28a14.36,14.36,0,0,1-6.05-10.92"/><polygon class="cls-2" points="328.42 411.12 328.42 404.68 324.34 404.68 324.34 431.94 328.42 431.94 328.42 414.03 332.82 414.03 332.82 411.12 328.42 411.12"/><path class="cls-2" d="M344,408.06v-2.91h-4.4v2.91a16.72,16.72,0,0,1-6,12.73l1.72,2.12a20.87,20.87,0,0,0,6.37-6.52,22,22,0,0,0,6.36,6.52l1.73-2.12c.16-.08-5.81-4.48-5.81-12.73"/><polygon class="cls-2" points="360.32 411.12 355.92 411.12 355.92 404.68 351.83 404.68 351.83 431.94 355.92 431.94 355.92 414.03 360.32 414.03 360.32 411.12"/><path class="cls-2" d="M297.78,429.19h-8.87v-2.67h8.87Zm0-8.4v2.9h-8.87v-2.9h-4.09v8.95a2.11,2.11,0,0,0,2.12,2.12h12.81a2.14,2.14,0,0,0,2.2-2.2v-9l-4.17.08Z"/><path class="cls-2" d="M287.73,413.4a17.69,17.69,0,0,0,6.83,5.5l1.49-2c-3.37-2.05-6.12-6-6.12-10.14v-1.65h-4.4v1.65a12.41,12.41,0,0,1-6.13,10.14l1.49,2a17,17,0,0,0,6.84-5.5"/><rect class="cls-2" x="297.7" y="404.68" width="4.09" height="14.69"/><polygon class="cls-2" points="258.19 424.32 271.94 424.32 271.94 431.39 276.02 431.39 276.02 421.41 258.19 421.41 258.19 424.32"/><path class="cls-2" d="M261.72,414.19a17.72,17.72,0,0,0,6.6,4.95l1.42-2.05c-3.07-1.8-5.82-4.63-5.82-8.32v-.4h5v-2.9H254.58v2.9h5v.4c0,3.69-2.75,6.52-5.81,8.32l1.41,2.05a17.75,17.75,0,0,0,6.52-4.95"/><polygon class="cls-2" points="271.94 404.68 271.94 410.1 267.3 410.1 267.3 413.01 271.94 413.01 271.94 420.24 276.02 420.24 276.02 404.68 271.94 404.68"/><polygon class="cls-1" points="174.52 411.75 174.52 400.44 163.21 400.44 163.21 411.75 151.82 411.75 151.82 423.14 163.21 423.14 163.21 434.45 174.52 434.45 174.52 423.14 185.91 423.14 185.91 411.75 174.52 411.75"/><path class="cls-3" d="M62.89,287.94a20.83,20.83,0,0,1-6-4.08,2.18,2.18,0,0,0-1.57-1.5l-.16.08s.16-.08.08-.08a2.48,2.48,0,0,0-.79-1.57c-3-4-3.84-8.72-4-13.43a44.06,44.06,0,0,1,2.12-13.59c2.51-8.57,5.26-17.13,7.78-25.69.39-1.34.94-1.34,2-1.26,2.36.16,4.16,1.73,6.36,2.2.08.08.16.16.24.16,3.77,2.91,3.77,2.91,2.2,7.7-.08.15-.08.31-.16.47-2.2,6.6-3.93,13.43-5.5,20.19-1.41,6-3.06,11.94-3.22,18.15C62.26,279,63,279.38,66,278a2.44,2.44,0,0,0,1.42-1.1h0a26.18,26.18,0,0,0,7.78-7.14h0c2.59-2.13,5.26-4.09,7-7h0c.86-.08,1.25-.78,1.73-1.33C89.44,256,94.16,249.76,99,243.79c1.73-2.12,3.45-4.4,3.85-7.31.23-1.49.23-3,.39-4.47.31-3.38,2-5.5,4.56-5.58s4.55,1.33,6.6,2.67a1.56,1.56,0,0,1,.39,2c-1.65,3.62-1.81,7.62-2.91,11.39-.47,1.73.08,2.28,1.81,2.36,3.46.08,6.91.24,10.37.47a14.67,14.67,0,0,1,6.28,1.65,2.32,2.32,0,0,1,1.34,2.83,2.39,2.39,0,0,1-2.44,2h-3.14l-1.26-.23c-.15,0-.39-.08-.55-.08a12.15,12.15,0,0,0-5-.16c-.24,0-.48.08-.63.08l-1.57.24c-.4-.08-.71-.08-.95.31-.47,0-.94.08-1.33.08-1.89.31-4.24-.08-4.48,2.83-.63,6.36-.94,12.72-2,19a80.82,80.82,0,0,1-3.77,14.77c-1,0-1.81,0-2.75-.08a1.25,1.25,0,0,0-1.34-.39.41.41,0,0,0-.31-.16c-2-2-3.85-4-4.24-7.15-.63-4.71.39-9.11.94-13.67.39-2.91.86-5.81,1.33-8.64a2.27,2.27,0,0,0-.39-2.12.72.72,0,0,0-1,0c-1.34,1.65-3.46,2.75-3.77,5.18h0c-.32.16-.79.24-.94.47-2.75,3.7-5.42,7.47-8.25,11.16s-5.42,7.38-8.88,10.37c-1.89,1.57-4,2.91-6,4.32-.39.08-.71.24-1.1.32-.16-.08-.31-.08-.39.07-.94,0-1.81-.07-2.75-.07-.16-.08-.32-.16-.39-.08-.32-.08-.55-.08-.87-.16C63.28,287.71,63.05,287.71,62.89,287.94Z"/><path class="cls-3" d="M192.83,282c.86,4-1.49,7.46-2.12,11.23a3.69,3.69,0,0,1-2.52,2.52c-7.22,2.36-14.14,5.89-22,5.65a29.07,29.07,0,0,1-5.19-.78c-4.87-1.18-7.07-2.75-7.78-8.25a59.22,59.22,0,0,0-1.49-7.31c-.86-3.14.47-5.57,4.16-5.34a38.32,38.32,0,0,0,11.16-.94c.94-.24,1.41-.55,1.41-1.65-.07-3.85,0-7.7-.15-11.55-.08-1.65-1.18-2.36-2.91-2.43-5.5-.24-11.08-.16-16.5-1-3.85-.62-7.46-1.88-10.21-4.94A7.24,7.24,0,0,1,137,253.3c-.47-2.91,1.57-4.8,4.4-4.25,13.67,2.83,27.42,4,41.32,1.18,4.09-.86,8.25-.86,12.34-1.88a22,22,0,0,0,3.14-1.1,6.9,6.9,0,0,1,3.06-.87c2.6.16,3.46,1.73,2.2,4a6.38,6.38,0,0,1-3,3c-6.21,3.07-12.49,6.13-19.48,7.08-2,.23-2.75,1.17-2.68,3.06a36.21,36.21,0,0,0,.55,4.95,9.5,9.5,0,0,1,.24,4.71c-.55,1.73.47,2.12,2,1.89a10.48,10.48,0,0,0,3.3-1.5c5.35-2.43,8.72-.31,8.57,5.5C192.83,280.16,192.83,281,192.83,282Zm-18.7,12.73a30.31,30.31,0,0,0,5.34-.32,3,3,0,0,0,2-1c2.59-3.77,4.32-7.7,3.06-12.41-.47-1.89-1.57-2.44-3.38-1.65a113.26,113.26,0,0,1-17.44,6.21c-.47.15-1.33.15-1.1.78.47,1.73.08,3.54,1.42,5.11C166.67,294.7,170.44,294.46,174.13,294.7Z"/><path class="cls-3" d="M223.07,235.31c2.44-2.6,3.54-5.9,5.35-8.88a19.33,19.33,0,0,0,1.88-3.3c.47-1.26,1.49-1,2.36-.24,6.2,5,8.72,15.72,5.42,23a55,55,0,0,1-3.46,6.91c-.94,1.42-.39,2.05,1.18,2.2h.08a7.11,7.11,0,0,0,4.4,2h.08c.23.39.55.39.94.39a2.31,2.31,0,0,1,.47.39,28.73,28.73,0,0,1,2.51,2.83c5.27,6.92,5.5,14.54.55,20.11a2.36,2.36,0,0,1-.62.16c-2.13-.24-1.89-2.59-3.3-3.46a1.78,1.78,0,0,1-.16-.62c-1.81-6.21-5.11-11.79-7.94-17.6-.78-1.65-1.72-.94-2.43.31-1.57,2.67-3,5.42-4.71,7.94-3.23,4.79-8.65,7.15-12.73,10.92a15.08,15.08,0,0,0-1.26-1,2.74,2.74,0,0,0-1.25-2,.68.68,0,0,0-.48-.7c-1.17-4-.31-7.86.79-11.71,1-3.53,2.75-6.76,3.46-10.37.07-.08.07-.16.07-.31.79-.16,1-.95,1.26-1.5C217,247,219.3,243.63,221,240c.63-1.57,2-2.83,2.12-4.71Z"/><path class="cls-3" d="M260.07,290.61a24.85,24.85,0,0,1-5.18-13.2,90,90,0,0,1,.63-15.87c1.41-12.88,4.08-25.61,4.63-38.65.08-.94-.31-2.43.71-2.9,1.18-.47,2.12.7,3.06,1.41,3.07,2.44,3.54,6,4.09,9.51.63,4,.08,8,.63,12,.08.62-.16,1.49.7,1.72s1-.55,1.5-.86a30.29,30.29,0,0,1,14.06-6.44c1.49-.24,3.22-.47,4.16,1,.71,1.34.16,2.75-.63,4.08a11.57,11.57,0,0,1-3.37,3.93c-6.76,4.87-10.69,11.94-14.93,18.78a17.62,17.62,0,0,0-2.43,9.9c.07,3.38-.08,6.83-.08,10.21a10.09,10.09,0,0,1-2,6.6,5.47,5.47,0,0,1-3.85-.39,2.09,2.09,0,0,0-1.73-.87Z"/><path class="cls-3" d="M148.21,236.64c1.17-9.43,1-19,4.71-28,.79-1.88,1.1-4.08,2.83-5.57,2.2-1.89,2.83-1.89,4.63.31,3.07,3.77,2.52,8.17,1.81,12.49-.79,5.11-1.41,10.29.16,15.48.86,2.9,3.06,4.24,5.73,4.87,6.6,1.57,13,.47,19.41-1.34a8.68,8.68,0,0,1,5.1.08,4.92,4.92,0,0,1,3.54,4c.31,2.2-1.34,3.14-2.67,4.08a12.63,12.63,0,0,1-7.7,2.28,39.68,39.68,0,0,0-14.77,2,14.39,14.39,0,0,1-5.19.48,82.89,82.89,0,0,1-10.76-1.5c-4.79-1-6.76-3.45-6.91-8.32C148.13,237.51,148.21,237,148.21,236.64Z"/><path class="cls-3" d="M296.45,258.72c-2-2.6-1.89-5.5-.94-8.41,1.49-4.71,4.32-8.72,7.07-12.65,3.14-4.4,6.36-8.72,9.66-13,2.59-3.38,5.26-3.45,8.09-.31a4.15,4.15,0,0,1,.39,5.73c-.47.71-1.33,1.42-.86,2.12.63,1,1.65,0,2.43-.15,4.32-.87,8.57-1,12.73.55,1.49.55,2,1.1,1.65,3-2.83,12.26-9.66,21.45-20.19,28-1.1.71-2.28,1.1-3.46,1.73-.31.08-.55.08-.86.15a3.28,3.28,0,0,0-1.89.24l-4.47-.47a4.37,4.37,0,0,0-2.36-.87C300.69,263,299,260.37,296.45,258.72Zm23.09-22.47a2.55,2.55,0,0,0-3.06,1.73c-.94,2-2.12,4-3.14,6.05-1.65,3.37-3.38,6.67-4.95,10.13-1.1,2.36-.39,3.38,2.2,3.54a6,6,0,0,0,4.4-1.42,37.6,37.6,0,0,0,10.76-12.8,2.75,2.75,0,0,0,.08-3A8.87,8.87,0,0,0,319.54,236.25Z"/><path class="cls-3" d="M416.09,257.46c-4.4-.24-7.3-2.83-9.5-6.36-.32-.47-.47-1.26-1.18-1.26s-.71.86-.86,1.41c-1.34,5-4.56,8.17-9.59,9.67a24.66,24.66,0,0,1-8.25,1.1c-1.73-.08-2.28-.71-1.65-2.44,1.65-4.48,4.87-7.93,7.78-11.55,3.69-4.55,8.09-8.56,11.47-13.43a22.35,22.35,0,0,0,1.73-3.38c.23-.47.78-.94.23-1.41-.39-.4-1-.16-1.49,0a58.81,58.81,0,0,0-8.95,3.77c-6,2.83-11.87,2.43-17.76-.16-.86-.39-2-.78-1.88-2,.07-1,1-1.65,1.88-2.05a39.2,39.2,0,0,1,12.41-4.08c6-.87,11.87-2.91,17.91-4.09a12.43,12.43,0,0,1,3.38-.23c4.32.31,6.52,3.14,5.5,7.3a39.51,39.51,0,0,1-7.15,14.62c-1.18,1.49-.23,2.12,1,2.67,3.38,1.65,6.84,3.22,10.22,4.87,1.41.71,3.61,1.25,3.53,2.67,0,1.57-2.2,2.28-3.61,3.06A10.49,10.49,0,0,1,416.09,257.46Z"/><path class="cls-3" d="M416.72,297.76c-4.79-.47-9.42-.71-12.57-5.11a11.14,11.14,0,0,1-1.8-10.21c1.88-6.13,6.2-10.37,10.92-14.3,1.57-1.25,3.22-2.51,4.71-3.92a4,4,0,0,1,6.21.55,5.33,5.33,0,0,0,5.18,2.51,4,4,0,0,1,4,2.36c3.85,6.52,3.14,13.12-2.36,18.85-2.12,2.2-4.48,4.32-6.6,6.52A10.5,10.5,0,0,1,416.72,297.76Zm-2.35-11.31a3.81,3.81,0,0,0,0,2.12c.39,2,1.88,2.67,3.45,1.57a14.74,14.74,0,0,0,6.52-10.37,7.25,7.25,0,0,0-2.59-7.07c-.94-.79-1.73-.63-2.12.47a11.78,11.78,0,0,1-1.89,3.38A17.29,17.29,0,0,0,414.37,286.45Z"/><path class="cls-3" d="M355.45,249.53c.23-6.68.23-6.68-5.58-5.58a31.62,31.62,0,0,1-8.56.47c-1.42-.08-3-.32-3.38-1.73-.4-1.26.7-2.36,1.57-3.3,2.2-2.51,5.34-3.38,8.4-4a67.92,67.92,0,0,1,7.86-.86,2.09,2.09,0,0,0,2.2-1.81c1.1-5.26,3.22-10.21,3.93-15.55a1.62,1.62,0,0,1,1.57-1.57,6,6,0,0,1,7.15,6.52,279.17,279.17,0,0,1-6.05,36.06c-.63,2.75-2.83,3.3-5.26,1.41-2.75-2.12-4.48-4.63-3.93-8.33A7.51,7.51,0,0,0,355.45,249.53Z"/><path class="cls-3" d="M360.47,278.12a24.34,24.34,0,0,1-2,8.09,80.41,80.41,0,0,1-7.54,14.93,4.09,4.09,0,0,1-3.77,2.12c-4.79-.16-13.2-5.66-12.34-12.88.63-4.72,3.85-7.15,7.7-9.12a27,27,0,0,1,6-2,2.28,2.28,0,0,0,2.05-2.75c-.55-4-.32-8.17-1.73-12-.32-.94-.08-1.26.86-1.26,2,.08,3.93.48,5,2.2a63.12,63.12,0,0,1,5.11,8.57A9.09,9.09,0,0,1,360.47,278.12Zm-21.13,14.22c0,2.12,1.26,3.46,2.91,4.48,1.41.86,2.43.78,3.14-1,1.26-3.22,2.36-6.44,3.38-9.74.16-.63.71-1.34.08-1.89-.79-.71-1.42,0-2,.47a51.86,51.86,0,0,1-6.44,5.34A3,3,0,0,0,339.34,292.34Z"/><path class="cls-3" d="M437,217.47c1.73,1.65,2,3.38,2.36,4.95a31.79,31.79,0,0,1,.39,12.18c-.31,1.81-.24,2.43,2,1.57,4.56-1.81,9-3.77,13.51-5.81a5.31,5.31,0,0,1,1.1-.16c1.58-.55,3.54-2,4.8-.39,1,1.25-.47,3.06-.87,4.63a9.45,9.45,0,0,1-6.83,7.15c-9.51,3.06-14.93,9.9-18,19-.24.63,0,1.73-1.1,1.73-.87,0-1-1-1.42-1.65a11.7,11.7,0,0,1-1.41-6.28c.71-10.69,1.73-21.37,4.79-31.66A15.18,15.18,0,0,0,437,217.47Z"/><path class="cls-3" d="M322.22,293.13c-2.2-5.74-1.42-11.55-.55-17.44a31.9,31.9,0,0,0,.47-7.15c-.16-1.5.47-2.05,1.88-2.12a5.48,5.48,0,0,1,4.79,2.51c3.3,4.24,4.09,9.11,3.3,14.3a71.31,71.31,0,0,1-1.88,9,3.51,3.51,0,0,0-.16,1.81c.47,1.65-.31,2.75-1.57,3.61l-1.65-.47a8.27,8.27,0,0,0-2.75-1.88c-.24-.24-.47-.55-.71-.79.08-.24,0-.31-.23-.31a.44.44,0,0,0-.39-.24c-.08-.31-.16-.71-.55-.86Z"/><path class="cls-2" d="M137.84,361.47v11.71h-2.28V361.47h-4.09v-2.2H142v2.2Z"/><path class="cls-2" d="M147.34,365.09a4.26,4.26,0,0,0-.94.07,2.55,2.55,0,0,0-.94.48,2.1,2.1,0,0,0-.87,1,3.5,3.5,0,0,0-.31,1.65V373H142V363h2.28v1.1h.08a4.44,4.44,0,0,1,.62-.71,3.22,3.22,0,0,1,.87-.55,4.35,4.35,0,0,1,.94-.32,2.85,2.85,0,0,1,.55-.07v2.67Z"/><path class="cls-2" d="M154.88,373.1c-.07-.08-.07-.24-.15-.47s-.08-.47-.16-.71a6.1,6.1,0,0,1-1.34.94,4.92,4.92,0,0,1-1.8.55,4,4,0,0,1-2.36-.39,2.27,2.27,0,0,1-1.18-2,2.91,2.91,0,0,1,.55-2.2,4.21,4.21,0,0,1,1.81-1.26,12.32,12.32,0,0,1,1.65-.39c.55-.08,1-.16,1.33-.24a5,5,0,0,0,1-.31.8.8,0,0,0,.47-.79,1,1,0,0,0-.55-.86,2.77,2.77,0,0,0-1.49-.32,2.73,2.73,0,0,0-1.58.47,1.5,1.5,0,0,0-.62,1.18h-2.13a3.09,3.09,0,0,1,1.18-2.67,4.84,4.84,0,0,1,3.15-1.1,5.63,5.63,0,0,1,3.06.87,2.7,2.7,0,0,1,1.33,2.43v5.58a4.74,4.74,0,0,0,.16,1.18c.08.31.16.55.16.55Zm-.31-4.79a1.34,1.34,0,0,1-.55.31,3.73,3.73,0,0,0-.55.24l-1.26.23a3.68,3.68,0,0,0-1.1.32,1.86,1.86,0,0,0-.78.55.69.69,0,0,0-.08.78.76.76,0,0,0,.94.55l1.26-.23a6.26,6.26,0,0,0,1.41-.79,1.61,1.61,0,0,0,.71-1.26v-.7Z"/><path class="cls-2" d="M164.39,372.94h-2.67l-3.54-9.9h2.52l2.35,6.84,2.36-6.84h2.44Z"/><path class="cls-2" d="M170.6,368.78a2.53,2.53,0,0,0,.62,1.57,2,2,0,0,0,1.81.94,2.21,2.21,0,0,0,1.26-.31,6.11,6.11,0,0,0,.7-.63h2.36a6.6,6.6,0,0,1-1.33,2,4.14,4.14,0,0,1-3,1,4.21,4.21,0,0,1-3.38-1.58,6.15,6.15,0,0,1-.08-7.54,4.23,4.23,0,0,1,3.38-1.57,4.31,4.31,0,0,1,3.3,1.49,5.89,5.89,0,0,1,1.26,4.64Zm4.63-2a2.75,2.75,0,0,0-.79-1.57,2,2,0,0,0-1.49-.55,2.08,2.08,0,0,0-1.57.63,3,3,0,0,0-.71,1.49Z"/><path class="cls-2" d="M179.55,373.1V359.19h2.28V373.1Z"/><path class="cls-2" d="M192.83,365.16V373h-2.36v-7.86h-1.1v-2h1.1v-1.25a4,4,0,0,1,.16-1.1,1.32,1.32,0,0,1,.47-.79,1.61,1.61,0,0,1,.79-.47,2.09,2.09,0,0,1,1-.16h1.25v2.12h-.55a.58.58,0,0,0-.47.16.41.41,0,0,0-.23.31,4.58,4.58,0,0,0-.08.55v.71h1.33v2h-1.33Z"/><path class="cls-2" d="M203,364.14a6.51,6.51,0,0,1,0,7.7,4.13,4.13,0,0,1-3.45,1.57,4.36,4.36,0,0,1-3.46-1.57,6.51,6.51,0,0,1,0-7.7,4.2,4.2,0,0,1,3.46-1.65A4.69,4.69,0,0,1,203,364.14Zm-1.65,6.21A3.83,3.83,0,0,0,202,368a4,4,0,0,0-.71-2.35,1.93,1.93,0,0,0-1.8-.95,2.1,2.1,0,0,0-1.81.95A3.8,3.8,0,0,0,197,368a4.17,4.17,0,0,0,.71,2.36,2.09,2.09,0,0,0,1.81.94A2.19,2.19,0,0,0,201.31,370.35Z"/><path class="cls-2" d="M211.21,365.09a4.26,4.26,0,0,0-.94.07,2.55,2.55,0,0,0-.94.48,2.1,2.1,0,0,0-.87,1,3.5,3.5,0,0,0-.31,1.65V373h-2.28V363h2.28v1.1h.08a4.44,4.44,0,0,1,.62-.71,3.22,3.22,0,0,1,.87-.55,4.35,4.35,0,0,1,.94-.32,2.77,2.77,0,0,1,.55-.07v2.67Z"/><path class="cls-2" d="M225.43,373.1c-.08-.08-.08-.24-.16-.47s-.08-.47-.15-.71a6.35,6.35,0,0,1-1.34.94,5,5,0,0,1-1.81.55,4,4,0,0,1-2.35-.39,2.27,2.27,0,0,1-1.18-2,2.91,2.91,0,0,1,.55-2.2,4.24,4.24,0,0,1,1.8-1.26,12.32,12.32,0,0,1,1.65-.39c.55-.08,1-.16,1.34-.24a4.92,4.92,0,0,0,.94-.31.79.79,0,0,0,.47-.79,1,1,0,0,0-.55-.86,2.75,2.75,0,0,0-1.49-.32,2.67,2.67,0,0,0-1.57.47,1.51,1.51,0,0,0-.63,1.18h-2.12a3.07,3.07,0,0,1,1.18-2.67,4.8,4.8,0,0,1,3.14-1.1,5.64,5.64,0,0,1,3.07.87,2.7,2.7,0,0,1,1.33,2.43v5.58a4.74,4.74,0,0,0,.16,1.18c.08.31.16.55.16.55Zm-.24-4.79a1.28,1.28,0,0,1-.55.31,4.27,4.27,0,0,0-.55.24l-1.25.23a3.6,3.6,0,0,0-1.1.32,1.89,1.89,0,0,0-.79.55.71.71,0,0,0-.08.78.77.77,0,0,0,.95.55c.55-.08.86-.15,1.25-.23a6.31,6.31,0,0,0,1.42-.79,1.6,1.6,0,0,0,.7-1.26v-.7Z"/><path class="cls-2" d="M229.83,373.1V359.19h2.28V373.1Z"/><path class="cls-2" d="M234.54,373.1V359.19h2.28V373.1Z"/><path class="cls-2" d="M242.4,370.9v1.89a4,4,0,0,1-.16,1l-.47.7a2.5,2.5,0,0,1-.86.71,1.81,1.81,0,0,1-.71.24l-.63-.79a4.24,4.24,0,0,0,1-.39,1.13,1.13,0,0,0,.55-.87h-1.57v-2.59l2.83.08Z"/><path class="cls-2" d="M256.85,361.47v11.71h-2.27V361.47h-4.09v-2.2H261v2.2Z"/><path class="cls-2" d="M266.36,365.09a4.26,4.26,0,0,0-.94.07,2.66,2.66,0,0,0-.95.48,2.13,2.13,0,0,0-.86,1,3.38,3.38,0,0,0-.31,1.65V373H261V363h2.28v1.1h.07a5.1,5.1,0,0,1,.63-.71,3.22,3.22,0,0,1,.87-.55,4.35,4.35,0,0,1,.94-.32,2.77,2.77,0,0,1,.55-.07v2.67Z"/><path class="cls-2" d="M273.82,373.1c-.08-.08-.08-.24-.15-.47s-.08-.47-.16-.71a6.35,6.35,0,0,1-1.34.94,5,5,0,0,1-1.8.55A4,4,0,0,1,268,373a2.27,2.27,0,0,1-1.18-2,2.91,2.91,0,0,1,.55-2.2,3.63,3.63,0,0,1,1.81-1.26,12.32,12.32,0,0,1,1.65-.39c.55-.08,1-.16,1.33-.24a5,5,0,0,0,.95-.31.8.8,0,0,0,.47-.79A1,1,0,0,0,273,365a2.81,2.81,0,0,0-1.5-.32,2.7,2.7,0,0,0-1.57.47,1.51,1.51,0,0,0-.63,1.18h-2.12a3.07,3.07,0,0,1,1.18-2.67,4.84,4.84,0,0,1,3.14-1.1,5.64,5.64,0,0,1,3.07.87,2.7,2.7,0,0,1,1.33,2.43v5.58a4.74,4.74,0,0,0,.16,1.18c.08.31.16.55.16.55Zm-.23-4.79a1.41,1.41,0,0,1-.55.31,3.31,3.31,0,0,0-.55.24l-1.26.23a3.6,3.6,0,0,0-1.1.32,2,2,0,0,0-.79.55.71.71,0,0,0-.07.78.75.75,0,0,0,.94.55l1.26-.23a6.26,6.26,0,0,0,1.41-.79,1.5,1.5,0,0,0,.71-1.26v-.7Z"/><path class="cls-2" d="M283.33,372.94h-2.67l-3.54-9.9h2.52l2.35,6.84,2.36-6.84h2.43Z"/><path class="cls-2" d="M289.53,368.78a2.94,2.94,0,0,0,.55,1.57,2,2,0,0,0,1.81.94,2.21,2.21,0,0,0,1.26-.31,7.44,7.44,0,0,0,.71-.63h2.35a6.6,6.6,0,0,1-1.33,2,4.14,4.14,0,0,1-3,1,4.21,4.21,0,0,1-3.38-1.58,6.15,6.15,0,0,1-.08-7.54,4.23,4.23,0,0,1,3.38-1.57,4.31,4.31,0,0,1,3.3,1.49,5.89,5.89,0,0,1,1.26,4.64Zm4.64-2a2.75,2.75,0,0,0-.79-1.57,2,2,0,0,0-1.49-.55,2.2,2.2,0,0,0-1.57.63,3,3,0,0,0-.71,1.49Z"/><path class="cls-2" d="M298.49,373.1V359.19h2.28V373.1Z"/><path class="cls-2" d="M311.85,365.16V373h-2.36v-7.86h-1.1v-2h1.1v-1.25a4,4,0,0,1,.16-1.1,1.28,1.28,0,0,1,.47-.79,1.58,1.58,0,0,1,.78-.47,4,4,0,0,1,1-.16h1.26v2.12h-.55a.57.57,0,0,0-.47.16.43.43,0,0,0-.24.31,5.2,5.2,0,0,0-.07.55v.71h1.33v2h-1.33Z"/><path class="cls-2" d="M321.9,364.14a6.51,6.51,0,0,1,0,7.7,4.13,4.13,0,0,1-3.46,1.57,4.25,4.25,0,0,1-3.45-1.57,6.51,6.51,0,0,1,0-7.7,4.2,4.2,0,0,1,3.45-1.65A4.44,4.44,0,0,1,321.9,364.14Zm-1.65,6.21A3.83,3.83,0,0,0,321,368a4,4,0,0,0-.71-2.35,2.19,2.19,0,0,0-3.61,0,3.8,3.8,0,0,0-.71,2.35,4.17,4.17,0,0,0,.71,2.36,2.09,2.09,0,0,0,1.8.94A2,2,0,0,0,320.25,370.35Z"/><path class="cls-2" d="M330.15,365.09a4.26,4.26,0,0,0-.94.07,2.66,2.66,0,0,0-.95.48,2.13,2.13,0,0,0-.86,1,3.38,3.38,0,0,0-.31,1.65V373h-2.28V363h2.28v1.1h.07a5.1,5.1,0,0,1,.63-.71,3.22,3.22,0,0,1,.87-.55,4.35,4.35,0,0,1,.94-.32,2.77,2.77,0,0,1,.55-.07v2.67Z"/><path class="cls-2" d="M347,371.21c0,1.73-.47,2.83-1.57,3.46a5.92,5.92,0,0,1-3.14.86,4.72,4.72,0,0,1-3.3-1,3.51,3.51,0,0,1-1.26-2.27H340c0,.31.24.62.71.86a3.26,3.26,0,0,0,1.57.39,2.85,2.85,0,0,0,1.65-.47,1.71,1.71,0,0,0,.7-1.49v-.71a4.35,4.35,0,0,1-1.41.94,3.58,3.58,0,0,1-1.65.32,3.94,3.94,0,0,1-3.06-1.34,5,5,0,0,1-1.18-3.45,4.18,4.18,0,0,1,1.26-3.3,3.94,3.94,0,0,1,3-1.26,4.2,4.2,0,0,1,1.65.31,4.7,4.7,0,0,1,1.41.87V363h2.28v8.17Zm-2.91-2a2.77,2.77,0,0,0,.71-2,2.6,2.6,0,0,0-.71-2,2.5,2.5,0,0,0-1.88-.62,2.54,2.54,0,0,0-1.81.62,2.63,2.63,0,0,0-.7,2,2.94,2.94,0,0,0,.7,2,2.43,2.43,0,0,0,1.81.79A2.61,2.61,0,0,0,344.05,369.17Z"/><path class="cls-2" d="M356.86,364.14a6.51,6.51,0,0,1,0,7.7,4.13,4.13,0,0,1-3.46,1.57,4.25,4.25,0,0,1-3.45-1.57,6.51,6.51,0,0,1,0-7.7,4.2,4.2,0,0,1,3.45-1.65A4.56,4.56,0,0,1,356.86,364.14Zm-1.65,6.21a3.83,3.83,0,0,0,.71-2.36,4,4,0,0,0-.71-2.35,2.19,2.19,0,0,0-3.61,0,3.8,3.8,0,0,0-.71,2.35,4.17,4.17,0,0,0,.71,2.36,2.2,2.2,0,0,0,3.61,0Z"/><path class="cls-2" d="M367.62,364.14a6.51,6.51,0,0,1,0,7.7,4.13,4.13,0,0,1-3.45,1.57,4.25,4.25,0,0,1-3.46-1.57,6.51,6.51,0,0,1,0-7.7,4.2,4.2,0,0,1,3.46-1.65A4.56,4.56,0,0,1,367.62,364.14ZM366,370.35a3.83,3.83,0,0,0,.71-2.36,4,4,0,0,0-.71-2.35,2.19,2.19,0,0,0-3.61,0,3.8,3.8,0,0,0-.71,2.35,4.17,4.17,0,0,0,.71,2.36,2.09,2.09,0,0,0,1.81.94A2,2,0,0,0,366,370.35Z"/><path class="cls-2" d="M377.36,373.1v-.94a5.27,5.27,0,0,1-1.33.94,4.1,4.1,0,0,1-4.79-1.26,6.19,6.19,0,0,1-1.18-3.85,6.26,6.26,0,0,1,1.18-3.92,3.67,3.67,0,0,1,3.14-1.5,3.58,3.58,0,0,1,1.65.32,5,5,0,0,1,1.33.94v-4.71h2.28V373l-2.28.08Zm-.55-2.67a5,5,0,0,0,0-4.87,2,2,0,0,0-1.88-.94,2.23,2.23,0,0,0-1.89.94,5,5,0,0,0,0,4.87,2.36,2.36,0,0,0,3.77,0Z"/><rect class="cls-1" x="50.64" y="387.55" width="410.87" height="2.36"/><rect class="cls-4" y="0.12" width="512" height="512"/></svg>